<?xml version="1.0" encoding="UTF-8"?>
<svg id="Layer_1" data-name="Layer 1" xmlns="http://www.w3.org/2000/svg" xmlns:xlink="http://www.w3.org/1999/xlink" viewBox="0 0 98.56 131.11">
  <defs>
    <style>
      .cls-1 {
        fill: #7f321a;
      }

      .cls-1, .cls-2, .cls-3 {
        stroke-width: 0px;
      }

      .cls-4 {
        clip-path: url(#clippath);
      }

      .cls-2 {
        fill: none;
      }

      .cls-5 {
        clip-path: url(#clippath-1);
      }

      .cls-6 {
        clip-path: url(#clippath-3);
      }

      .cls-7 {
        clip-path: url(#clippath-2);
      }

      .cls-8 {
        opacity: .7;
      }

      .cls-3 {
        fill: #dab785;
      }
    </style>
    <clipPath id="clippath">
      <rect class="cls-2" x="-3.75" y="221.99" width="98.32" height="49.95"/>
    </clipPath>
    <clipPath id="clippath-1">
      <rect class="cls-2" x="-71.46" y="226.44" width="215.2" height="42.74"/>
    </clipPath>
    <clipPath id="clippath-2">
      <rect class="cls-2" x=".1" y="51.3" width="98.32" height="49.95"/>
    </clipPath>
    <clipPath id="clippath-3">
      <rect class="cls-2" x="-67.61" y="55.74" width="215.2" height="42.74"/>
    </clipPath>
  </defs>
  <polygon class="cls-1" points="98.56 104.39 49.28 131.11 0 104.39 0 0 98.56 0 98.56 104.39"/>
  <g class="cls-4">
    <g class="cls-5">
      <g id="Pattern">
        <g>
          <path class="cls-3" d="M48.42,120.53v4.28s3.02,3.02,3.02,3.02l-3.03,3.03v4.27h-4.27l-3.02,3.02-3.02-3.02h-4.28v-4.28l-3.02-3.02,3.02-3.02v-4.27h4.27l3.03-3.03,3.02,3.02h4.28ZM50.69,127.83l-2.8-2.8v-3.97s-3.97,0-3.97,0l-2.8-2.8-2.81,2.81h-3.96v3.96l-2.8,2.8,2.8,2.8v3.97h3.97l2.8,2.8,2.8-2.8h3.96v-3.96l2.81-2.81Z"/>
          <path class="cls-3" d="M45.7,123.25v2.68l1.9,1.9-1.9,1.9v2.68h-2.68s-1.9,1.9-1.9,1.9l-1.9-1.9h-2.68s0-2.68,0-2.68l-1.9-1.9,1.9-1.9v-2.68h2.68l1.9-1.9,1.9,1.9h2.68ZM46.84,127.83l-1.68-1.68v-2.37h-2.37l-1.68-1.68-1.68,1.68h-2.37v2.37s-1.68,1.67-1.68,1.67l1.68,1.68v2.37s2.37,0,2.37,0l1.68,1.68,1.67-1.67h2.37v-2.37l1.68-1.68Z"/>
        </g>
      </g>
    </g>
  </g>
  <g class="cls-8">
    <g class="cls-7">
      <g class="cls-6">
        <g id="Pattern-2" data-name="Pattern">
          <g>
            <g>
              <path class="cls-3" d="M10.07,76.45v4.28l3.02,3.02-3.03,3.03v4.27h-4.27s-3.02,3.02-3.02,3.02l-3.02-3.02h-4.28v-4.28s-3.02-3.02-3.02-3.02l3.02-3.02v-4.27s4.27,0,4.27,0l3.03-3.03,3.02,3.02h4.28ZM12.34,83.75l-2.8-2.8v-3.97h-3.97s-2.8-2.8-2.8-2.8L-.04,76.98h-3.96s0,3.96,0,3.96l-2.8,2.8,2.8,2.8v3.97s3.97,0,3.97,0l2.8,2.8,2.8-2.8h3.96s0-3.96,0-3.96l2.81-2.81Z"/>
              <path class="cls-3" d="M7.35,79.17v2.68s1.9,1.9,1.9,1.9l-1.9,1.9v2.68s-2.68,0-2.68,0l-1.9,1.9-1.9-1.9H-1.81v-2.68l-1.9-1.9,1.9-1.9v-2.68H.87s1.9-1.9,1.9-1.9l1.9,1.9h2.68ZM8.49,83.75l-1.67-1.67v-2.37h-2.37l-1.67-1.67-1.68,1.68H-1.27s0,2.37,0,2.37l-1.67,1.67,1.67,1.67v2.37H1.1s1.67,1.68,1.67,1.68l1.67-1.67h2.37v-2.37s1.68-1.68,1.68-1.68Z"/>
            </g>
            <g>
              <path class="cls-3" d="M24.14,62.38v4.28l3.02,3.02-3.03,3.03v4.27h-4.27s-3.02,3.02-3.02,3.02l-3.02-3.02h-4.28s0-4.28,0-4.28l-3.02-3.02,3.02-3.02v-4.27s4.27,0,4.27,0l3.03-3.03,3.02,3.02h4.28ZM26.41,69.68l-2.8-2.8v-3.97h-3.97s-2.8-2.8-2.8-2.8l-2.81,2.81h-3.96s0,3.96,0,3.96l-2.8,2.8,2.8,2.8v3.97s3.97,0,3.97,0l2.8,2.8,2.8-2.8h3.96s0-3.96,0-3.96l2.81-2.81Z"/>
              <path class="cls-3" d="M21.42,65.1v2.68s1.9,1.9,1.9,1.9l-1.9,1.9v2.68s-2.68,0-2.68,0l-1.9,1.9-1.9-1.9h-2.68v-2.68l-1.9-1.9,1.9-1.9v-2.68h2.68s1.9-1.9,1.9-1.9l1.9,1.9h2.68ZM22.56,69.68l-1.67-1.67v-2.37h-2.37l-1.67-1.67-1.68,1.68h-2.37s0,2.37,0,2.37l-1.67,1.67,1.67,1.67v2.37h2.37s1.67,1.68,1.67,1.68l1.67-1.67h2.37v-2.37s1.68-1.68,1.68-1.68Z"/>
            </g>
            <g>
              <path class="cls-3" d="M10.08,48.31v4.28l3.02,3.02-3.03,3.03v4.27h-4.27l-3.02,3.02-3.02-3.02h-4.28s0-4.28,0-4.28l-3.02-3.02,3.02-3.02v-4.27s4.27,0,4.27,0l3.03-3.03,3.02,3.02h4.28ZM12.35,55.61l-2.8-2.8v-3.97h-3.97s-2.8-2.8-2.8-2.8L-.03,48.85h-3.96s0,3.96,0,3.96l-2.8,2.8,2.8,2.8v3.97s3.97,0,3.97,0l2.8,2.8,2.8-2.8h3.96v-3.96s2.81-2.81,2.81-2.81Z"/>
              <path class="cls-3" d="M7.35,51.04v2.68s1.9,1.9,1.9,1.9l-1.9,1.9v2.68s-2.68,0-2.68,0l-1.9,1.9-1.9-1.9H-1.8v-2.68l-1.9-1.9,1.9-1.9v-2.68H.88s1.9-1.9,1.9-1.9l1.9,1.9h2.68ZM8.49,55.61l-1.67-1.67v-2.37h-2.37l-1.67-1.67-1.68,1.68H-1.27s0,2.37,0,2.37l-1.67,1.67,1.67,1.67v2.37H1.1s1.67,1.68,1.67,1.68l1.67-1.67h2.37v-2.37s1.68-1.68,1.68-1.68Z"/>
            </g>
            <g>
              <path class="cls-3" d="M38.21,48.31v4.28s3.02,3.02,3.02,3.02l-3.03,3.03v4.27s-4.27,0-4.27,0l-3.02,3.02-3.02-3.02h-4.28s0-4.28,0-4.28l-3.02-3.02,3.02-3.02v-4.27s4.27,0,4.27,0l3.03-3.03,3.02,3.02h4.28ZM40.48,55.61l-2.8-2.8v-3.97h-3.97l-2.8-2.8-2.81,2.81h-3.96s0,3.96,0,3.96l-2.8,2.8,2.8,2.8v3.97s3.97,0,3.97,0l2.8,2.8,2.8-2.8h3.96v-3.96s2.81-2.81,2.81-2.81Z"/>
              <path class="cls-3" d="M35.49,51.03v2.68s1.9,1.9,1.9,1.9l-1.9,1.9v2.68s-2.68,0-2.68,0l-1.9,1.9-1.9-1.9h-2.68v-2.68l-1.9-1.9,1.9-1.9v-2.68h2.68s1.9-1.9,1.9-1.9l1.9,1.9h2.68ZM36.63,55.61l-1.67-1.67v-2.37h-2.37l-1.67-1.67-1.68,1.68h-2.37s0,2.37,0,2.37l-1.67,1.67,1.67,1.67v2.37h2.37s1.67,1.68,1.67,1.68l1.67-1.67h2.37v-2.37s1.68-1.68,1.68-1.68Z"/>
            </g>
            <g>
              <path class="cls-3" d="M24.14,34.24v4.28s3.02,3.02,3.02,3.02l-3.03,3.03v4.27h-4.27s-3.02,3.02-3.02,3.02l-3.02-3.02h-4.28s0-4.28,0-4.28l-3.02-3.02,3.02-3.02v-4.27s4.27,0,4.27,0l3.03-3.03,3.02,3.02h4.28ZM26.41,41.55l-2.8-2.8v-3.97h-3.97l-2.8-2.8-2.81,2.81h-3.96s0,3.96,0,3.96l-2.8,2.8,2.8,2.8v3.97s3.97,0,3.97,0l2.8,2.8,2.8-2.8h3.96v-3.96l2.81-2.81Z"/>
              <path class="cls-3" d="M21.42,36.97v2.68s1.9,1.9,1.9,1.9l-1.9,1.9v2.68s-2.68,0-2.68,0l-1.9,1.9-1.9-1.9h-2.68v-2.68l-1.9-1.9,1.9-1.9v-2.68h2.68s1.9-1.9,1.9-1.9l1.9,1.9h2.68ZM22.56,41.54l-1.67-1.67v-2.37h-2.37l-1.67-1.67-1.68,1.68h-2.37s0,2.37,0,2.37l-1.67,1.67,1.67,1.67v2.37h2.37s1.67,1.68,1.67,1.68l1.67-1.67h2.37v-2.37s1.68-1.68,1.68-1.68Z"/>
            </g>
            <g>
              <path class="cls-3" d="M10.08,20.18v4.28s3.02,3.02,3.02,3.02l-3.03,3.03v4.27h-4.27s-3.02,3.02-3.02,3.02l-3.02-3.02h-4.28s0-4.28,0-4.28l-3.02-3.02,3.02-3.02v-4.27s4.27,0,4.27,0l3.03-3.03,3.02,3.02h4.28ZM12.35,27.48l-2.8-2.8v-3.97h-3.97l-2.8-2.8L-.03,20.71h-3.96s0,3.96,0,3.96l-2.8,2.8,2.8,2.8v3.97s3.97,0,3.97,0l2.8,2.8,2.8-2.8h3.96v-3.96l2.81-2.81Z"/>
              <path class="cls-3" d="M7.36,22.9v2.68s1.9,1.9,1.9,1.9l-1.9,1.9v2.68s-2.68,0-2.68,0l-1.9,1.9-1.9-1.9H-1.8v-2.68l-1.9-1.9,1.9-1.9v-2.68H.88s1.9-1.9,1.9-1.9l1.9,1.9h2.68ZM8.5,27.48l-1.67-1.67v-2.37h-2.37l-1.67-1.67-1.68,1.68H-1.27s0,2.37,0,2.37l-1.67,1.67,1.67,1.67v2.37H1.1s1.67,1.68,1.67,1.68l1.67-1.67h2.37v-2.37s1.68-1.68,1.68-1.68Z"/>
            </g>
            <g>
              <path class="cls-3" d="M108.54,90.52v4.28s3.02,3.02,3.02,3.02l-3.03,3.03v4.27h-4.27l-3.02,3.02-3.02-3.02h-4.28s0-4.28,0-4.28l-3.02-3.02,3.02-3.02v-4.27h4.27l3.03-3.03,3.02,3.02h4.28ZM110.81,97.82l-2.8-2.8v-3.97s-3.97,0-3.97,0l-2.8-2.8-2.81,2.81h-3.96v3.96l-2.8,2.8,2.8,2.8v3.97h3.97s2.8,2.8,2.8,2.8l2.8-2.8h3.96v-3.96l2.81-2.81Z"/>
              <path class="cls-3" d="M105.82,93.24v2.68s1.9,1.9,1.9,1.9l-1.9,1.9v2.68h-2.68s-1.9,1.9-1.9,1.9l-1.9-1.9h-2.68v-2.68l-1.9-1.9,1.9-1.9v-2.68s2.68,0,2.68,0l1.9-1.9,1.9,1.9h2.68ZM106.96,97.82l-1.67-1.67v-2.37h-2.37l-1.68-1.68-1.68,1.68h-2.37s0,2.37,0,2.37l-1.68,1.68,1.68,1.68v2.37h2.37l1.67,1.67,1.68-1.68h2.37s0-2.37,0-2.37l1.68-1.68Z"/>
            </g>
            <g>
              <path class="cls-3" d="M94.47,76.45v4.28s3.02,3.02,3.02,3.02l-3.03,3.03v4.27h-4.27l-3.02,3.02-3.02-3.02h-4.28s0-4.28,0-4.28l-3.02-3.02,3.02-3.02v-4.27h4.27l3.03-3.03,3.02,3.02h4.28ZM96.74,83.75l-2.8-2.8v-3.97s-3.97,0-3.97,0l-2.8-2.8-2.81,2.81h-3.96v3.96l-2.8,2.8,2.8,2.8v3.97h3.97s2.8,2.8,2.8,2.8l2.8-2.8h3.96v-3.96l2.81-2.81Z"/>
              <path class="cls-3" d="M91.75,79.17v2.68l1.9,1.9-1.9,1.9v2.68h-2.68s-1.9,1.9-1.9,1.9l-1.9-1.9h-2.68v-2.68l-1.9-1.9,1.9-1.9v-2.68s2.68,0,2.68,0l1.9-1.9,1.9,1.9h2.68ZM92.89,83.75l-1.67-1.67v-2.37h-2.37l-1.68-1.68-1.68,1.68h-2.37s0,2.37,0,2.37l-1.68,1.68,1.68,1.68v2.37h2.37l1.67,1.67,1.68-1.68h2.37s0-2.37,0-2.37l1.68-1.68Z"/>
            </g>
            <g>
              <path class="cls-3" d="M108.54,62.38v4.28s3.02,3.02,3.02,3.02l-3.03,3.03v4.27h-4.27l-3.02,3.02-3.02-3.02h-4.28s0-4.28,0-4.28l-3.02-3.02,3.02-3.02v-4.27h4.27l3.03-3.03,3.02,3.02h4.28ZM110.81,69.68l-2.8-2.8v-3.97s-3.97,0-3.97,0l-2.8-2.8-2.81,2.81h-3.96v3.96l-2.8,2.8,2.8,2.8v3.97h3.97s2.8,2.8,2.8,2.8l2.8-2.8h3.96v-3.96l2.81-2.81Z"/>
              <path class="cls-3" d="M105.82,65.1v2.68s1.89,1.9,1.89,1.9l-1.9,1.9v2.68s-2.68,0-2.68,0l-1.9,1.9-1.9-1.9h-2.68s0-2.68,0-2.68l-1.9-1.9,1.9-1.9v-2.68s2.68,0,2.68,0l1.9-1.9,1.9,1.9h2.68ZM106.96,69.68l-1.67-1.67v-2.37s-2.37,0-2.37,0l-1.68-1.68-1.68,1.68h-2.37s0,2.37,0,2.37l-1.67,1.67,1.68,1.68v2.37s2.37,0,2.37,0l1.67,1.67,1.67-1.67h2.37v-2.37s1.68-1.68,1.68-1.68Z"/>
            </g>
            <g>
              <path class="cls-3" d="M80.41,62.39v4.28s3.02,3.02,3.02,3.02l-3.03,3.03v4.27h-4.27l-3.02,3.02-3.02-3.02h-4.28s0-4.28,0-4.28l-3.02-3.02,3.02-3.02v-4.27h4.27l3.03-3.03,3.02,3.02h4.28ZM82.68,69.69l-2.8-2.8v-3.97s-3.97,0-3.97,0l-2.8-2.8-2.81,2.81h-3.96v3.96l-2.8,2.8,2.8,2.8v3.97s3.97,0,3.97,0l2.8,2.8,2.8-2.8h3.96v-3.96l2.81-2.81Z"/>
              <path class="cls-3" d="M77.69,65.11v2.68l1.9,1.9-1.9,1.9v2.68h-2.68s-1.9,1.9-1.9,1.9l-1.9-1.9h-2.68v-2.68l-1.9-1.9,1.9-1.9v-2.68s2.68,0,2.68,0l1.9-1.9,1.9,1.9h2.68ZM78.83,69.69l-1.67-1.67v-2.37h-2.37l-1.68-1.68-1.68,1.68h-2.37s0,2.37,0,2.37l-1.68,1.68,1.68,1.68v2.37h2.37l1.67,1.67,1.68-1.68h2.37s0-2.37,0-2.37l1.68-1.68Z"/>
            </g>
            <g>
              <path class="cls-3" d="M66.34,48.32v4.28s3.02,3.02,3.02,3.02l-3.03,3.03v4.27h-4.27l-3.02,3.02-3.02-3.02h-4.28s0-4.28,0-4.28l-3.02-3.02,3.02-3.02v-4.27h4.27l3.03-3.03,3.02,3.02h4.28ZM68.61,55.62l-2.8-2.8v-3.97s-3.97,0-3.97,0l-2.8-2.8-2.81,2.81h-3.96v3.96l-2.8,2.8,2.8,2.8v3.97s3.97,0,3.97,0l2.8,2.8,2.8-2.8h3.96v-3.96s2.81-2.81,2.81-2.81Z"/>
              <path class="cls-3" d="M63.62,51.04v2.68l1.9,1.9-1.9,1.9v2.68h-2.68s-1.9,1.9-1.9,1.9l-1.9-1.9h-2.68v-2.68l-1.9-1.9,1.9-1.9v-2.68s2.68,0,2.68,0l1.9-1.9,1.9,1.9h2.68ZM64.76,55.62l-1.67-1.67v-2.37h-2.37l-1.67-1.67-1.68,1.68h-2.37v2.37s-1.67,1.68-1.67,1.68l1.67,1.67v2.37h2.37l1.67,1.67,1.68-1.68h2.37s0-2.37,0-2.37l1.68-1.68Z"/>
            </g>
            <g>
              <path class="cls-3" d="M94.48,48.32v4.28s3.02,3.02,3.02,3.02l-3.03,3.03v4.27h-4.27l-3.02,3.02-3.02-3.02h-4.28s0-4.28,0-4.28l-3.02-3.02,3.02-3.02v-4.27h4.27l3.03-3.03,3.02,3.02h4.28ZM96.75,55.62l-2.8-2.8v-3.97s-3.97,0-3.97,0l-2.8-2.8-2.81,2.81h-3.96v3.96l-2.8,2.8,2.8,2.8v3.97s3.97,0,3.97,0l2.8,2.8,2.8-2.8h3.96v-3.96l2.81-2.81Z"/>
              <path class="cls-3" d="M91.75,51.04v2.68s1.89,1.9,1.89,1.9l-1.9,1.9v2.68s-2.68,0-2.68,0l-1.9,1.9-1.9-1.9h-2.68s0-2.68,0-2.68l-1.9-1.9,1.9-1.9v-2.68s2.68,0,2.68,0l1.9-1.9,1.9,1.9h2.68ZM92.9,55.62l-1.67-1.67v-2.37s-2.37,0-2.37,0l-1.68-1.68-1.68,1.68h-2.37s0,2.37,0,2.37l-1.67,1.67,1.68,1.68v2.37s2.37,0,2.37,0l1.67,1.67,1.67-1.67h2.37v-2.37s1.68-1.68,1.68-1.68Z"/>
            </g>
            <g>
              <path class="cls-3" d="M80.41,34.25v4.28s3.02,3.02,3.02,3.02l-3.03,3.03v4.27h-4.27l-3.02,3.02-3.02-3.02h-4.28s0-4.28,0-4.28l-3.02-3.02,3.02-3.02v-4.27h4.27l3.03-3.03,3.02,3.02h4.28ZM82.68,41.55l-2.8-2.8v-3.97s-3.97,0-3.97,0l-2.8-2.8-2.81,2.81h-3.96v3.96l-2.8,2.8,2.8,2.8v3.97s3.97,0,3.97,0l2.8,2.8,2.8-2.8h3.96v-3.96l2.81-2.81Z"/>
              <path class="cls-3" d="M77.69,36.97v2.68s1.89,1.9,1.89,1.9l-1.9,1.9v2.68s-2.68,0-2.68,0l-1.9,1.9-1.9-1.9h-2.68s0-2.68,0-2.68l-1.9-1.9,1.9-1.9v-2.68h2.68s1.9-1.9,1.9-1.9l1.9,1.9h2.68ZM78.83,41.55l-1.67-1.67v-2.37s-2.37,0-2.37,0l-1.67-1.67-1.68,1.68h-2.37s0,2.37,0,2.37l-1.67,1.67,1.67,1.67v2.37s2.37,0,2.37,0l1.67,1.67,1.67-1.67h2.37v-2.37s1.68-1.68,1.68-1.68Z"/>
            </g>
            <g>
              <path class="cls-3" d="M108.55,34.25v4.28s3.02,3.02,3.02,3.02l-3.03,3.03v4.27h-4.27l-3.02,3.02-3.02-3.02h-4.28s0-4.28,0-4.28l-3.02-3.02,3.02-3.02v-4.27h4.27l3.03-3.03,3.02,3.02h4.28ZM110.82,41.55l-2.8-2.8v-3.97s-3.97,0-3.97,0l-2.8-2.8-2.81,2.81h-3.96v3.96l-2.8,2.8,2.8,2.8v3.97s3.97,0,3.97,0l2.8,2.8,2.8-2.8h3.96v-3.96l2.81-2.81Z"/>
              <path class="cls-3" d="M105.82,36.97v2.68l1.9,1.9-1.9,1.9v2.68h-2.68s-1.9,1.9-1.9,1.9l-1.9-1.9h-2.68v-2.68l-1.9-1.9,1.9-1.9v-2.68s2.68,0,2.68,0l1.9-1.9,1.9,1.9h2.68ZM106.97,41.55l-1.67-1.67v-2.37h-2.37l-1.68-1.68-1.68,1.68h-2.37s0,2.37,0,2.37l-1.68,1.68,1.68,1.68v2.37h2.37l1.67,1.67,1.68-1.68h2.37s0-2.37,0-2.37l1.68-1.68Z"/>
            </g>
            <g>
              <path class="cls-3" d="M94.48,20.18v4.28s3.02,3.02,3.02,3.02l-3.03,3.03v4.27h-4.27l-3.02,3.02-3.02-3.02h-4.28s0-4.28,0-4.28l-3.02-3.02,3.02-3.02v-4.27h4.27l3.03-3.03,3.02,3.02h4.28ZM96.75,27.48l-2.8-2.8v-3.97s-3.97,0-3.97,0l-2.8-2.8-2.81,2.81h-3.96v3.96l-2.8,2.8,2.8,2.8v3.97s3.97,0,3.97,0l2.8,2.8,2.8-2.8h3.96v-3.96l2.81-2.81Z"/>
              <path class="cls-3" d="M91.76,22.91v2.68l1.9,1.9-1.9,1.9v2.68h-2.68s-1.9,1.9-1.9,1.9l-1.9-1.9h-2.68v-2.68l-1.9-1.9,1.9-1.9v-2.68s2.68,0,2.68,0l1.9-1.9,1.9,1.9h2.68ZM92.9,27.48l-1.67-1.67v-2.37h-2.37l-1.67-1.67-1.68,1.68h-2.37v2.37s-1.67,1.68-1.67,1.68l1.67,1.67v2.37h2.37l1.67,1.67,1.68-1.68h2.37s0-2.37,0-2.37l1.68-1.68Z"/>
            </g>
            <g>
              <path class="cls-3" d="M108.55,6.11v4.28s3.02,3.02,3.02,3.02l-3.03,3.03v4.27h-4.27l-3.02,3.02-3.02-3.02h-4.28s0-4.28,0-4.28l-3.02-3.02,3.02-3.02v-4.27h4.27l3.03-3.03,3.02,3.02h4.28ZM110.82,13.42l-2.8-2.8v-3.97s-3.97,0-3.97,0l-2.8-2.8-2.81,2.81h-3.96v3.96l-2.8,2.8,2.8,2.8v3.97s3.97,0,3.97,0l2.8,2.8,2.8-2.8h3.96v-3.96l2.81-2.81Z"/>
              <path class="cls-3" d="M105.83,8.84v2.68l1.9,1.9-1.9,1.9v2.68s-2.68,0-2.68,0l-1.9,1.9-1.9-1.9h-2.68s0-2.68,0-2.68l-1.9-1.9,1.9-1.9v-2.68h2.68s1.9-1.9,1.9-1.9l1.9,1.9h2.68ZM106.97,13.41l-1.67-1.67v-2.37h-2.37l-1.67-1.67-1.68,1.68h-2.37s0,2.37,0,2.37l-1.67,1.67,1.67,1.67v2.37s2.37,0,2.37,0l1.67,1.67,1.67-1.67h2.37v-2.37s1.68-1.68,1.68-1.68Z"/>
            </g>
            <path class="cls-3" d="M38.2,132.72v4.28l3.02,3.02-3.03,3.03v4.27h-4.27s-3.02,3.02-3.02,3.02l-3.02-3.02h-4.28s0-4.28,0-4.28l-3.02-3.02,3.02-3.02v-4.27h4.27s3.03-3.03,3.03-3.03l3.02,3.02h4.28ZM40.47,140.02l-2.8-2.8v-3.97h-3.97s-2.8-2.8-2.8-2.8l-2.81,2.81h-3.96v3.96l-2.8,2.8,2.8,2.8v3.97h3.97s2.8,2.8,2.8,2.8l2.8-2.8h3.96s0-3.96,0-3.96l2.81-2.81Z"/>
            <path class="cls-3" d="M66.34,132.71v4.28s3.02,3.02,3.02,3.02l-3.03,3.03v4.27h-4.27s-3.02,3.02-3.02,3.02l-3.02-3.02h-4.28s0-4.28,0-4.28l-3.02-3.02,3.02-3.02v-4.27h4.27s3.03-3.03,3.03-3.03l3.02,3.02h4.28ZM68.61,140.01l-2.8-2.8v-3.97s-3.97,0-3.97,0l-2.8-2.8-2.81,2.81h-3.96v3.96l-2.8,2.8,2.8,2.8v3.97h3.97s2.8,2.8,2.8,2.8l2.8-2.8h3.96s0-3.96,0-3.96l2.81-2.81Z"/>
            <g>
              <path class="cls-3" d="M52.27,118.65v4.28s3.02,3.02,3.02,3.02l-3.03,3.03v4.27h-4.27s-3.02,3.02-3.02,3.02l-3.02-3.02h-4.28s0-4.28,0-4.28l-3.02-3.02,3.02-3.02v-4.27h4.27s3.03-3.03,3.03-3.03l3.02,3.02h4.28ZM54.54,125.95l-2.8-2.8v-3.97s-3.97,0-3.97,0l-2.8-2.8-2.81,2.81h-3.96v3.96l-2.8,2.8,2.8,2.8v3.97h3.97s2.8,2.8,2.8,2.8l2.8-2.8h3.96s0-3.96,0-3.96l2.81-2.81Z"/>
              <path class="cls-3" d="M49.55,121.37v2.68l1.9,1.9-1.9,1.9v2.68s-2.68,0-2.68,0l-1.9,1.9-1.9-1.9h-2.68v-2.68l-1.9-1.9,1.9-1.9v-2.68h2.68l1.9-1.9,1.9,1.9h2.68ZM50.69,125.95l-1.67-1.67v-2.37h-2.37l-1.68-1.68-1.68,1.68h-2.37v2.37s-1.68,1.67-1.68,1.67l1.68,1.68v2.37h2.37l1.67,1.67,1.67-1.67h2.37v-2.37s1.68-1.68,1.68-1.68Z"/>
            </g>
            <g>
              <path class="cls-3" d="M24.14,118.65v4.28l3.02,3.02-3.03,3.03v4.27h-4.27s-3.02,3.02-3.02,3.02l-3.02-3.02h-4.28s0-4.28,0-4.28l-3.02-3.02,3.02-3.02v-4.27h4.27s3.03-3.03,3.03-3.03l3.02,3.02h4.28ZM26.41,125.95l-2.8-2.8v-3.97h-3.97s-2.8-2.8-2.8-2.8l-2.81,2.81h-3.96v3.96l-2.8,2.8,2.8,2.8v3.97h3.97s2.8,2.8,2.8,2.8l2.8-2.8h3.96s0-3.96,0-3.96l2.81-2.81Z"/>
              <path class="cls-3" d="M21.41,121.37v2.68l1.9,1.9-1.9,1.9v2.68h-2.68s-1.9,1.9-1.9,1.9l-1.9-1.9h-2.68v-2.68l-1.9-1.9,1.9-1.9v-2.68h2.68s1.9-1.9,1.9-1.9l1.9,1.9h2.68ZM22.56,125.95l-1.67-1.67v-2.37h-2.37l-1.68-1.68-1.68,1.68h-2.37v2.37l-1.67,1.67,1.68,1.68v2.37h2.37l1.67,1.67,1.67-1.67h2.37s0-2.37,0-2.37l1.68-1.68Z"/>
            </g>
            <g>
              <path class="cls-3" d="M10.07,104.58v4.28l3.02,3.02-3.03,3.03v4.27h-4.27l-3.02,3.02-3.02-3.02h-4.28s0-4.28,0-4.28l-3.02-3.02,3.02-3.02v-4.27H-.26s3.03-3.03,3.03-3.03l3.02,3.02h4.28ZM12.34,111.89l-2.8-2.8v-3.97h-3.97s-2.8-2.8-2.8-2.8L-.04,105.12h-3.96v3.96l-2.8,2.8,2.8,2.8v3.97H-.03s2.8,2.8,2.8,2.8l2.8-2.8h3.96v-3.96s2.81-2.81,2.81-2.81Z"/>
              <path class="cls-3" d="M7.35,107.31v2.68l1.9,1.9-1.9,1.9v2.68h-2.68s-1.9,1.9-1.9,1.9l-1.9-1.9H-1.81v-2.68l-1.9-1.9,1.9-1.9v-2.68H.87s1.9-1.9,1.9-1.9l1.9,1.9h2.68ZM8.49,111.89l-1.67-1.67v-2.37h-2.37l-1.68-1.68-1.68,1.68H-1.27v2.37l-1.67,1.67,1.68,1.68v2.37H1.1l1.67,1.67,1.67-1.67h2.37s0-2.37,0-2.37l1.68-1.68Z"/>
            </g>
            <g>
              <path class="cls-3" d="M38.21,104.58v4.28s3.02,3.02,3.02,3.02l-3.03,3.03v4.27h-4.27s-3.02,3.02-3.02,3.02l-3.02-3.02h-4.28s0-4.28,0-4.28l-3.02-3.02,3.02-3.02v-4.27h4.27s3.03-3.03,3.03-3.03l3.02,3.02h4.28ZM40.48,111.88l-2.8-2.8v-3.97s-3.97,0-3.97,0l-2.8-2.8-2.81,2.81h-3.96v3.96l-2.8,2.8,2.8,2.8v3.97h3.97s2.8,2.8,2.8,2.8l2.8-2.8h3.96s0-3.96,0-3.96l2.81-2.81Z"/>
              <path class="cls-3" d="M35.48,107.3v2.68l1.9,1.9-1.9,1.9v2.68s-2.68,0-2.68,0l-1.9,1.9-1.9-1.9h-2.68v-2.68l-1.9-1.9,1.9-1.9v-2.68h2.68l1.9-1.9,1.9,1.9h2.68ZM36.62,111.88l-1.67-1.67v-2.37h-2.37l-1.68-1.68-1.68,1.68h-2.37v2.37s-1.68,1.67-1.68,1.67l1.68,1.68v2.37h2.37l1.67,1.67,1.67-1.67h2.37v-2.37s1.68-1.68,1.68-1.68Z"/>
            </g>
            <g>
              <path class="cls-3" d="M24.14,90.52v4.28s3.02,3.02,3.02,3.02l-3.03,3.03v4.27h-4.27l-3.02,3.02-3.02-3.02h-4.28s0-4.28,0-4.28l-3.02-3.02,3.02-3.02v-4.27h4.27s3.03-3.03,3.03-3.03l3.02,3.02h4.28ZM26.41,97.82l-2.8-2.8v-3.97s-3.97,0-3.97,0l-2.8-2.8-2.81,2.81h-3.96v3.96l-2.8,2.8,2.8,2.8v3.97h3.97s2.8,2.8,2.8,2.8l2.8-2.8h3.96v-3.96s2.81-2.81,2.81-2.81Z"/>
              <path class="cls-3" d="M21.42,93.24v2.68l1.9,1.9-1.9,1.9v2.68s-2.68,0-2.68,0l-1.9,1.9-1.9-1.9h-2.68v-2.68l-1.9-1.9,1.9-1.9v-2.68h2.68l1.9-1.9,1.9,1.9h2.68ZM22.56,97.82l-1.67-1.67v-2.37h-2.37l-1.68-1.68-1.68,1.68h-2.37v2.37s-1.68,1.67-1.68,1.67l1.68,1.68v2.37h2.37l1.67,1.67,1.67-1.67h2.37v-2.37s1.68-1.68,1.68-1.68Z"/>
            </g>
            <g>
              <path class="cls-3" d="M80.4,118.64v4.28s3.02,3.02,3.02,3.02l-3.03,3.03v4.27h-4.27s-3.02,3.02-3.02,3.02l-3.02-3.02h-4.28v-4.28s-3.02-3.02-3.02-3.02l3.02-3.02v-4.27h4.27s3.03-3.03,3.03-3.03l3.02,3.02h4.28ZM82.68,125.94l-2.8-2.8v-3.97s-3.97,0-3.97,0l-2.8-2.8-2.81,2.81h-3.96v3.96l-2.8,2.8,2.8,2.8v3.97h3.97l2.8,2.8,2.8-2.8h3.96s0-3.96,0-3.96l2.81-2.81Z"/>
              <path class="cls-3" d="M77.68,121.37v2.68l1.9,1.9-1.9,1.9v2.68s-2.68,0-2.68,0l-1.9,1.9-1.9-1.9h-2.68v-2.68l-1.9-1.9,1.9-1.9v-2.68h2.68l1.9-1.9,1.9,1.9h2.68ZM78.82,125.94l-1.67-1.67v-2.37h-2.37l-1.68-1.68-1.68,1.68h-2.37v2.37s-1.68,1.67-1.68,1.67l1.68,1.68v2.37h2.37l1.67,1.67,1.67-1.67h2.37v-2.37s1.68-1.68,1.68-1.68Z"/>
            </g>
            <g>
              <path class="cls-3" d="M66.34,104.58v4.28s3.02,3.02,3.02,3.02l-3.03,3.03v4.27h-4.27s-3.02,3.02-3.02,3.02l-3.02-3.02h-4.28v-4.28s-3.02-3.02-3.02-3.02l3.02-3.02v-4.27h4.27s3.03-3.03,3.03-3.03l3.02,3.02h4.28ZM68.61,111.88l-2.8-2.8v-3.97s-3.97,0-3.97,0l-2.8-2.8-2.81,2.81h-3.96v3.96s-2.8,2.8-2.8,2.8l2.8,2.8v3.97h3.97l2.8,2.8,2.8-2.8h3.96s0-3.96,0-3.96l2.81-2.81Z"/>
              <path class="cls-3" d="M63.62,107.3v2.68l1.9,1.9-1.9,1.9v2.68s-2.68,0-2.68,0l-1.9,1.9-1.9-1.9h-2.68v-2.68l-1.9-1.9,1.9-1.9v-2.68h2.68l1.9-1.9,1.9,1.9h2.68ZM64.76,111.88l-1.67-1.67v-2.37h-2.37l-1.68-1.68-1.68,1.68h-2.37v2.37s-1.68,1.67-1.68,1.67l1.68,1.68v2.37h2.37l1.67,1.67,1.67-1.67h2.37v-2.37s1.68-1.68,1.68-1.68Z"/>
            </g>
            <g>
              <path class="cls-3" d="M94.47,104.57v4.28s3.02,3.02,3.02,3.02l-3.03,3.03v4.27s-4.27,0-4.27,0l-3.02,3.02-3.02-3.02h-4.28v-4.28s-3.02-3.02-3.02-3.02l3.02-3.02v-4.27h4.27l3.03-3.03,3.02,3.02h4.28ZM96.74,111.88l-2.8-2.8v-3.97s-3.97,0-3.97,0l-2.8-2.8-2.81,2.81h-3.96v3.96s-2.8,2.8-2.8,2.8l2.8,2.8v3.97h3.97l2.8,2.8,2.8-2.8h3.96v-3.96s2.81-2.81,2.81-2.81Z"/>
              <path class="cls-3" d="M91.75,107.3v2.68l1.9,1.9-1.9,1.9v2.68s-2.68,0-2.68,0l-1.9,1.9-1.9-1.9h-2.68v-2.68l-1.9-1.9,1.9-1.9v-2.68h2.68l1.9-1.9,1.9,1.9h2.68ZM92.89,111.87l-1.67-1.67v-2.37h-2.37l-1.68-1.68-1.68,1.68h-2.37v2.37s-1.68,1.67-1.68,1.67l1.68,1.68v2.37h2.37l1.67,1.67,1.67-1.67h2.37v-2.37s1.68-1.68,1.68-1.68Z"/>
            </g>
            <g>
              <path class="cls-3" d="M80.41,90.51v4.28s3.02,3.02,3.02,3.02l-3.03,3.03v4.27s-4.27,0-4.27,0l-3.02,3.02-3.02-3.02h-4.28v-4.28s-3.02-3.02-3.02-3.02l3.02-3.02v-4.27h4.27l3.03-3.03,3.02,3.02h4.28ZM82.68,97.81l-2.8-2.8v-3.97s-3.97,0-3.97,0l-2.8-2.8-2.81,2.81h-3.96v3.96s-2.8,2.8-2.8,2.8l2.8,2.8v3.97h3.97l2.8,2.8,2.8-2.8h3.96v-3.96s2.81-2.81,2.81-2.81Z"/>
              <path class="cls-3" d="M77.69,93.23v2.68l1.9,1.9-1.9,1.9v2.68s-2.68,0-2.68,0l-1.9,1.9-1.9-1.9h-2.68v-2.68l-1.9-1.9,1.9-1.9v-2.68h2.68l1.9-1.9,1.9,1.9h2.68ZM78.83,97.81l-1.67-1.67v-2.37h-2.37l-1.68-1.68-1.68,1.68h-2.37v2.37s-1.68,1.67-1.68,1.67l1.68,1.68v2.37h2.37l1.67,1.67,1.67-1.67h2.37v-2.37s1.68-1.68,1.68-1.68Z"/>
            </g>
            <g>
              <path class="cls-3" d="M52.27,90.51v4.28s3.02,3.02,3.02,3.02l-3.03,3.03v4.27h-4.27s-3.02,3.02-3.02,3.02l-3.02-3.02h-4.28v-4.28s-3.02-3.02-3.02-3.02l3.02-3.02v-4.27h4.27s3.03-3.03,3.03-3.03l3.02,3.02h4.28ZM54.55,97.81l-2.8-2.8v-3.97s-3.97,0-3.97,0l-2.8-2.8-2.81,2.81h-3.96v3.96l-2.8,2.8,2.8,2.8v3.97h3.97l2.8,2.8,2.8-2.8h3.96s0-3.96,0-3.96l2.81-2.81Z"/>
              <path class="cls-3" d="M49.55,93.24v2.68l1.9,1.9-1.9,1.9v2.68s-2.68,0-2.68,0l-1.9,1.9-1.9-1.9h-2.68v-2.68l-1.9-1.9,1.9-1.9v-2.68h2.68l1.9-1.9,1.9,1.9h2.68ZM50.69,97.81l-1.67-1.67v-2.37h-2.37l-1.68-1.68-1.68,1.68h-2.37v2.37s-1.68,1.67-1.68,1.67l1.68,1.68v2.37h2.37l1.67,1.67,1.67-1.67h2.37v-2.37s1.68-1.68,1.68-1.68Z"/>
            </g>
            <g>
              <path class="cls-3" d="M38.21,76.45v4.28s3.02,3.02,3.02,3.02l-3.03,3.03v4.27h-4.27l-3.02,3.02-3.02-3.02h-4.28v-4.28s-3.02-3.02-3.02-3.02l3.02-3.02v-4.27h4.27s3.03-3.03,3.03-3.03l3.02,3.02h4.28ZM40.48,83.75l-2.8-2.8v-3.97s-3.97,0-3.97,0l-2.8-2.8-2.81,2.81h-3.96v3.96l-2.8,2.8,2.8,2.8v3.97h3.97l2.8,2.8,2.8-2.8h3.96v-3.96s2.81-2.81,2.81-2.81Z"/>
              <path class="cls-3" d="M35.49,79.17v2.68l1.9,1.9-1.9,1.9v2.68s-2.68,0-2.68,0l-1.9,1.9-1.9-1.9h-2.68v-2.68l-1.9-1.9,1.9-1.9v-2.68h2.68l1.9-1.9,1.9,1.9h2.68ZM36.63,83.75l-1.67-1.67v-2.37h-2.37l-1.68-1.68-1.68,1.68h-2.37v2.37s-1.68,1.67-1.68,1.67l1.68,1.68v2.37h2.37l1.67,1.67,1.67-1.67h2.37v-2.37s1.68-1.68,1.68-1.68Z"/>
            </g>
            <g>
              <path class="cls-3" d="M66.34,76.44v4.28s3.02,3.02,3.02,3.02l-3.03,3.03v4.27s-4.27,0-4.27,0l-3.02,3.02-3.02-3.02h-4.28v-4.28s-3.02-3.02-3.02-3.02l3.02-3.02v-4.27h4.27l3.03-3.03,3.02,3.02h4.28ZM68.61,83.74l-2.8-2.8v-3.97s-3.97,0-3.97,0l-2.8-2.8-2.81,2.81h-3.96v3.96s-2.8,2.8-2.8,2.8l2.8,2.8v3.97h3.97l2.8,2.8,2.8-2.8h3.96v-3.96s2.81-2.81,2.81-2.81Z"/>
              <path class="cls-3" d="M63.62,79.17v2.68l1.9,1.9-1.9,1.9v2.68s-2.68,0-2.68,0l-1.9,1.9-1.9-1.9h-2.68v-2.68l-1.9-1.9,1.9-1.9v-2.68h2.68l1.9-1.9,1.9,1.9h2.68ZM64.76,83.74l-1.67-1.67v-2.37h-2.37l-1.68-1.68-1.68,1.68h-2.37v2.37s-1.68,1.67-1.68,1.67l1.68,1.68v2.37h2.37l1.67,1.67,1.67-1.67h2.37v-2.37s1.68-1.68,1.68-1.68Z"/>
            </g>
            <g>
              <path class="cls-3" d="M52.28,62.38v4.28s3.02,3.02,3.02,3.02l-3.03,3.03v4.27h-4.27s-3.02,3.02-3.02,3.02l-3.02-3.02h-4.28v-4.28s-3.02-3.02-3.02-3.02l3.02-3.02v-4.27h4.27l3.03-3.03,3.02,3.02h4.28ZM54.55,69.68l-2.8-2.8v-3.97s-3.97,0-3.97,0l-2.8-2.8-2.81,2.81h-3.96v3.96s-2.8,2.8-2.8,2.8l2.8,2.8v3.97h3.97l2.8,2.8,2.8-2.8h3.96v-3.96l2.81-2.81Z"/>
              <path class="cls-3" d="M49.55,65.1v2.68l1.9,1.9-1.9,1.9v2.68s-2.68,0-2.68,0l-1.9,1.9-1.9-1.9h-2.68v-2.68l-1.9-1.9,1.9-1.9v-2.68h2.68l1.9-1.9,1.9,1.9h2.68ZM50.7,69.68l-1.67-1.67v-2.37h-2.37l-1.68-1.68-1.68,1.68h-2.37v2.37s-1.68,1.67-1.68,1.67l1.68,1.68v2.37h2.37l1.67,1.67,1.67-1.67h2.37v-2.37s1.68-1.68,1.68-1.68Z"/>
            </g>
            <g>
              <path class="cls-3" d="M52.27,34.24v4.28l3.02,3.02-3.03,3.03v4.27s-4.27,0-4.27,0l-3.02,3.02-3.02-3.02h-4.28v-4.28l-3.02-3.02,3.02-3.02v-4.27h4.27l3.03-3.03,3.02,3.02h4.28ZM54.54,41.55l-2.8-2.8v-3.97h-3.97l-2.8-2.8-2.81,2.81h-3.96v3.96l-2.8,2.8,2.8,2.8v3.97h3.97l2.8,2.8,2.8-2.8h3.96s0-3.96,0-3.96l2.81-2.81Z"/>
              <path class="cls-3" d="M49.54,36.97v2.68l1.9,1.9-1.9,1.9v2.68h-2.68l-1.9,1.9-1.9-1.9h-2.68v-2.68l-1.9-1.9,1.9-1.9v-2.68s2.68,0,2.68,0l1.9-1.9,1.9,1.9h2.68ZM50.69,41.55l-1.68-1.68v-2.37h-2.37l-1.68-1.68-1.68,1.68h-2.37v2.37s-1.67,1.68-1.67,1.68l1.68,1.68v2.37h2.37l1.68,1.68,1.68-1.68h2.37v-2.37s1.68-1.68,1.68-1.68Z"/>
            </g>
            <g>
              <path class="cls-3" d="M38.2,20.18v4.28l3.02,3.02-3.03,3.03v4.27h-4.27l-3.02,3.02-3.02-3.02h-4.28v-4.28l-3.02-3.02,3.02-3.02v-4.27h4.27l3.03-3.03,3.02,3.02h4.28ZM40.47,27.48l-2.8-2.8v-3.97s-3.97,0-3.97,0l-2.8-2.8-2.81,2.81h-3.96v3.96l-2.8,2.8,2.8,2.8v3.97h3.97l2.8,2.8,2.8-2.8h3.96v-3.96l2.81-2.81Z"/>
              <path class="cls-3" d="M35.48,22.9v2.68l1.9,1.9-1.9,1.9v2.68h-2.68l-1.9,1.9-1.9-1.9h-2.68v-2.68l-1.9-1.9,1.9-1.9v-2.68h2.68s1.9-1.9,1.9-1.9l1.9,1.9h2.68ZM36.62,27.48l-1.68-1.68v-2.37h-2.37l-1.68-1.68-1.68,1.68h-2.37v2.37l-1.68,1.68,1.68,1.68v2.37h2.37l1.68,1.68,1.68-1.68h2.37v-2.37s1.68-1.68,1.68-1.68Z"/>
            </g>
            <g>
              <path class="cls-3" d="M66.34,20.17v4.28s3.02,3.02,3.02,3.02l-3.03,3.03v4.27s-4.27,0-4.27,0l-3.02,3.02-3.02-3.02h-4.28v-4.28l-3.02-3.02,3.02-3.02v-4.27h4.27l3.03-3.03,3.02,3.02h4.28ZM68.61,27.48l-2.8-2.8v-3.97s-3.97,0-3.97,0l-2.8-2.8-2.81,2.81h-3.96v3.96l-2.8,2.8,2.8,2.8v3.97h3.97l2.8,2.8,2.8-2.8h3.96s0-3.96,0-3.96l2.81-2.81Z"/>
              <path class="cls-3" d="M63.61,22.9v2.68s1.9,1.9,1.9,1.9l-1.9,1.9v2.68h-2.68s-1.9,1.9-1.9,1.9l-1.9-1.9h-2.68s0-2.68,0-2.68l-1.9-1.9,1.9-1.9v-2.68h2.68s1.9-1.9,1.9-1.9l1.9,1.9h2.68ZM64.76,27.48l-1.68-1.68v-2.37s-2.37,0-2.37,0l-1.68-1.68-1.68,1.68h-2.37s0,2.37,0,2.37l-1.67,1.67,1.68,1.68v2.37s2.37,0,2.37,0l1.68,1.68,1.67-1.67h2.37v-2.37l1.68-1.68Z"/>
            </g>
            <g>
              <path class="cls-3" d="M52.27,6.11v4.28s3.02,3.02,3.02,3.02l-3.03,3.03v4.27h-4.27l-3.02,3.02-3.02-3.02h-4.28v-4.28l-3.02-3.02,3.02-3.02v-4.27h4.27l3.03-3.03,3.02,3.02h4.28ZM54.54,13.41l-2.8-2.8v-3.97s-3.97,0-3.97,0l-2.8-2.8-2.81,2.81h-3.96v3.96l-2.8,2.8,2.8,2.8v3.97h3.97l2.8,2.8,2.8-2.8h3.96v-3.96l2.81-2.81Z"/>
              <path class="cls-3" d="M49.55,8.83v2.68s1.9,1.9,1.9,1.9l-1.9,1.9v2.68h-2.68s-1.9,1.9-1.9,1.9l-1.9-1.9h-2.68s0-2.68,0-2.68l-1.9-1.9,1.9-1.9v-2.68h2.68l1.9-1.9,1.9,1.9h2.68ZM50.69,13.41l-1.68-1.68v-2.37s-2.37,0-2.37,0l-1.68-1.68-1.68,1.68h-2.37v2.37s-1.68,1.67-1.68,1.67l1.68,1.68v2.37s2.37,0,2.37,0l1.68,1.68,1.67-1.67h2.37v-2.37l1.68-1.68Z"/>
            </g>
            <g>
              <path class="cls-3" d="M24.14,6.11v4.28l3.02,3.02-3.03,3.03v4.27h-4.27l-3.02,3.02-3.02-3.02h-4.28v-4.28l-3.02-3.02,3.02-3.02v-4.27h4.27l3.03-3.03,3.02,3.02h4.28ZM26.41,13.42l-2.8-2.8v-3.97h-3.97l-2.8-2.8-2.81,2.81h-3.96v3.96l-2.8,2.8,2.8,2.8v3.97h3.97l2.8,2.8,2.8-2.8h3.96v-3.96l2.81-2.81Z"/>
              <path class="cls-3" d="M21.41,8.84v2.68l1.9,1.9-1.9,1.9v2.68h-2.68l-1.9,1.9-1.9-1.9h-2.68v-2.68l-1.9-1.9,1.9-1.9v-2.68h2.68s1.9-1.9,1.9-1.9l1.9,1.9h2.68ZM22.56,13.41l-1.68-1.68v-2.37h-2.37l-1.68-1.68-1.68,1.68h-2.37v2.37l-1.68,1.68,1.68,1.68v2.37h2.37l1.68,1.68,1.68-1.68h2.37v-2.37s1.68-1.68,1.68-1.68Z"/>
            </g>
            <g>
              <path class="cls-3" d="M10.07-7.95V-3.67l3.02,3.02-3.03,3.03v4.27h-4.27l-3.02,3.02L-.25,6.65h-4.28V2.37L-7.55-.65l3.02-3.02v-4.27H-.26l3.03-3.03,3.02,3.02h4.28ZM12.34-.65l-2.8-2.8v-3.97h-3.97l-2.8-2.8L-.04-7.42h-3.96v3.96L-6.8-.65l2.8,2.8v3.97H-.03l2.8,2.8,2.8-2.8h3.96v-3.96l2.81-2.81Z"/>
              <path class="cls-3" d="M7.35-5.23v2.68l1.9,1.9-1.9,1.9v2.68h-2.68l-1.9,1.9-1.9-1.9H-1.81V1.24l-1.9-1.9,1.9-1.9v-2.68H.87s1.9-1.9,1.9-1.9l1.9,1.9h2.68ZM8.49-.65l-1.68-1.68v-2.37h-2.37l-1.68-1.68-1.68,1.68H-1.27v2.37l-1.68,1.68,1.68,1.68v2.37H1.1l1.68,1.68,1.68-1.68h2.37V1.03s1.68-1.68,1.68-1.68Z"/>
            </g>
            <g>
              <path class="cls-3" d="M38.21-7.96V-3.68s3.02,3.02,3.02,3.02l-3.03,3.03v4.27h-4.27l-3.02,3.02-3.02-3.02h-4.28V2.37l-3.02-3.02,3.02-3.02v-4.27h4.27l3.03-3.03,3.02,3.02h4.28ZM40.48-.65l-2.8-2.8v-3.97s-3.97,0-3.97,0l-2.8-2.8-2.81,2.81h-3.96v3.96l-2.8,2.8,2.8,2.8v3.97h3.97l2.8,2.8,2.8-2.8h3.96v-3.96l2.81-2.81Z"/>
              <path class="cls-3" d="M35.48-5.23v2.68s1.9,1.9,1.9,1.9l-1.9,1.9v2.68h-2.68s-1.9,1.9-1.9,1.9l-1.9-1.9h-2.68s0-2.68,0-2.68l-1.9-1.9,1.9-1.9v-2.68h2.68l1.9-1.9,1.9,1.9h2.68ZM36.62-.65l-1.68-1.68v-2.37s-2.37,0-2.37,0l-1.68-1.68-1.68,1.68h-2.37v2.37s-1.68,1.67-1.68,1.67l1.68,1.68v2.37s2.37,0,2.37,0l1.68,1.68,1.67-1.67h2.37V1.02l1.68-1.68Z"/>
            </g>
            <g>
              <path class="cls-3" d="M80.4,6.11v4.28l3.02,3.02-3.03,3.03v4.27s-4.27,0-4.27,0l-3.02,3.02-3.02-3.02h-4.28v-4.28l-3.02-3.02,3.02-3.02v-4.27h4.27l3.03-3.03,3.02,3.02h4.28ZM82.68,13.41l-2.8-2.8v-3.97h-3.97l-2.8-2.8-2.81,2.81h-3.96v3.96l-2.8,2.8,2.8,2.8v3.97h3.97l2.8,2.8,2.8-2.8h3.96s0-3.96,0-3.96l2.81-2.81Z"/>
              <path class="cls-3" d="M77.68,8.83v2.68l1.9,1.9-1.9,1.9v2.68h-2.68l-1.9,1.9-1.9-1.9h-2.68v-2.68l-1.9-1.9,1.9-1.9v-2.68s2.68,0,2.68,0l1.9-1.9,1.9,1.9h2.68ZM78.82,13.41l-1.68-1.68v-2.37h-2.37l-1.68-1.68-1.68,1.68h-2.37v2.37s-1.67,1.68-1.67,1.68l1.68,1.68v2.37h2.37l1.68,1.68,1.68-1.68h2.37v-2.37s1.68-1.68,1.68-1.68Z"/>
            </g>
            <g>
              <path class="cls-3" d="M66.34-7.96V-3.68l3.02,3.02-3.03,3.03v4.27h-4.27l-3.02,3.02-3.02-3.02h-4.28V2.36l-3.02-3.02,3.02-3.02v-4.27h4.27l3.03-3.03,3.02,3.02h4.28ZM68.61-.66l-2.8-2.8v-3.97h-3.97l-2.8-2.8-2.81,2.81h-3.96v3.96l-2.8,2.8,2.8,2.8v3.97s3.97,0,3.97,0l2.8,2.8,2.8-2.8h3.96v-3.96l2.81-2.81Z"/>
              <path class="cls-3" d="M63.62-5.24v2.68l1.9,1.9-1.9,1.9v2.68h-2.68l-1.9,1.9-1.9-1.9h-2.68V1.23l-1.9-1.9,1.9-1.9v-2.68h2.68s1.9-1.9,1.9-1.9l1.9,1.9h2.68ZM64.76-.66l-1.68-1.68v-2.37h-2.37l-1.68-1.68-1.68,1.68h-2.37v2.37l-1.68,1.68,1.68,1.68v2.37h2.37l1.68,1.68,1.68-1.68h2.37V1.02s1.68-1.68,1.68-1.68Z"/>
            </g>
            <g>
              <path class="cls-3" d="M94.47-7.96V-3.68s3.02,3.02,3.02,3.02l-3.03,3.03v4.27s-4.27,0-4.27,0l-3.02,3.02-3.02-3.02h-4.28V2.36l-3.02-3.02,3.02-3.02v-4.27h4.27l3.03-3.03,3.02,3.02h4.28ZM96.74-.66l-2.8-2.8v-3.97s-3.97,0-3.97,0l-2.8-2.8-2.81,2.81h-3.96v3.96l-2.8,2.8,2.8,2.8v3.97h3.97l2.8,2.8,2.8-2.8h3.96s0-3.96,0-3.96l2.81-2.81Z"/>
              <path class="cls-3" d="M91.75-5.24v2.68l1.9,1.9-1.9,1.9v2.68h-2.68s-1.9,1.9-1.9,1.9l-1.9-1.9h-2.68s0-2.68,0-2.68l-1.9-1.9,1.9-1.9v-2.68h2.68s1.9-1.9,1.9-1.9l1.9,1.9h2.68ZM92.89-.66l-1.68-1.68v-2.37h-2.37l-1.68-1.68-1.68,1.68h-2.37s0,2.37,0,2.37l-1.67,1.67,1.68,1.68v2.37s2.37,0,2.37,0l1.68,1.68,1.67-1.67h2.37V1.02l1.68-1.68Z"/>
            </g>
          </g>
        </g>
      </g>
    </g>
  </g>
</svg>