<?xml version="1.0" encoding="UTF-8"?>
<svg id="Layer_1" data-name="Layer 1" xmlns="http://www.w3.org/2000/svg" xmlns:xlink="http://www.w3.org/1999/xlink" viewBox="0 0 98.56 131.11">
  <defs>
    <style>
      .cls-1 {
        clip-path: url(#clippath);
      }

      .cls-2 {
        fill: none;
      }

      .cls-2, .cls-3, .cls-4 {
        stroke-width: 0px;
      }

      .cls-5 {
        clip-path: url(#clippath-1);
      }

      .cls-6 {
        clip-path: url(#clippath-3);
      }

      .cls-7 {
        clip-path: url(#clippath-2);
      }

      .cls-3 {
        fill: #d2ac78;
      }

      .cls-8 {
        opacity: .7;
      }

      .cls-4 {
        fill: #dab785;
      }
    </style>
    <clipPath id="clippath">
      <rect class="cls-2" x="4.26" y="210.9" width="98.32" height="49.95"/>
    </clipPath>
    <clipPath id="clippath-1">
      <rect class="cls-2" x="-63.46" y="215.34" width="215.2" height="42.74"/>
    </clipPath>
    <clipPath id="clippath-2">
      <rect class="cls-2" x=".12" y="53.44" width="98.32" height="49.95"/>
    </clipPath>
    <clipPath id="clippath-3">
      <rect class="cls-2" x="-67.59" y="57.89" width="215.2" height="42.74"/>
    </clipPath>
  </defs>
  <polygon class="cls-3" points="98.56 104.39 49.28 131.11 0 104.39 0 0 98.56 0 98.56 104.39"/>
  <g class="cls-8">
    <g class="cls-1">
      <g class="cls-5">
        <g id="Pattern">
          <g>
            <g>
              <path class="cls-4" d="M42.36,123.51v4.28l3.02,3.02-3.03,3.03v4.27h-4.27l-3.02,3.02-3.02-3.02h-4.28v-4.28l-3.02-3.02,3.02-3.02v-4.27h4.27l3.03-3.03,3.02,3.02h4.28ZM44.63,130.81l-2.8-2.8v-3.97h-3.97l-2.8-2.8-2.81,2.81h-3.96v3.96l-2.8,2.8,2.8,2.8v3.97h3.97l2.8,2.8,2.8-2.8h3.96v-3.96l2.81-2.81Z"/>
              <path class="cls-4" d="M39.64,126.23v2.68l1.9,1.9-1.9,1.9v2.68h-2.68l-1.9,1.9-1.9-1.9h-2.68v-2.68l-1.9-1.9,1.9-1.9v-2.68h2.68s1.9-1.9,1.9-1.9l1.9,1.9h2.68ZM40.78,130.81l-1.68-1.68v-2.37h-2.37l-1.68-1.68-1.68,1.68h-2.37v2.37l-1.68,1.68,1.68,1.68v2.37h2.37l1.68,1.68,1.68-1.68h2.37v-2.37s1.68-1.68,1.68-1.68Z"/>
            </g>
            <g>
              <path class="cls-4" d="M70.5,123.5v4.28s3.02,3.02,3.02,3.02l-3.03,3.03v4.27h-4.27l-3.02,3.02-3.02-3.02h-4.28v-4.28l-3.02-3.02,3.02-3.02v-4.27h4.27l3.03-3.03,3.02,3.02h4.28ZM72.77,130.81l-2.8-2.8v-3.97s-3.97,0-3.97,0l-2.8-2.8-2.81,2.81h-3.96v3.96l-2.8,2.8,2.8,2.8v3.97h3.97l2.8,2.8,2.8-2.8h3.96v-3.96l2.81-2.81Z"/>
              <path class="cls-4" d="M67.77,126.23v2.68l1.9,1.9-1.9,1.9v2.68h-2.68s-1.9,1.9-1.9,1.9l-1.9-1.9h-2.68s0-2.68,0-2.68l-1.9-1.9,1.9-1.9v-2.68h2.68l1.9-1.9,1.9,1.9h2.68ZM68.92,130.81l-1.68-1.68v-2.37h-2.37l-1.68-1.68-1.68,1.68h-2.37v2.37s-1.68,1.67-1.68,1.67l1.68,1.68v2.37s2.37,0,2.37,0l1.68,1.68,1.67-1.67h2.37v-2.37l1.68-1.68Z"/>
            </g>
            <g>
              <path class="cls-4" d="M56.43,109.44v4.28s3.02,3.02,3.02,3.02l-3.03,3.03v4.27h-4.27l-3.02,3.02-3.02-3.02h-4.28v-4.28l-3.02-3.02,3.02-3.02v-4.27h4.27l3.03-3.03,3.02,3.02h4.28ZM58.7,116.74l-2.8-2.8v-3.97s-3.97,0-3.97,0l-2.8-2.8-2.81,2.81h-3.96v3.96l-2.8,2.8,2.8,2.8v3.97h3.97l2.8,2.8,2.8-2.8h3.96v-3.96l2.81-2.81Z"/>
              <path class="cls-4" d="M53.71,112.16v2.68l1.9,1.9-1.9,1.9v2.68h-2.68s-1.9,1.9-1.9,1.9l-1.9-1.9h-2.68s0-2.68,0-2.68l-1.9-1.9,1.9-1.9v-2.68h2.68l1.9-1.9,1.9,1.9h2.68ZM54.85,116.74l-1.68-1.68v-2.37h-2.37l-1.68-1.68-1.68,1.68h-2.37v2.37s-1.68,1.67-1.68,1.67l1.68,1.68v2.37s2.37,0,2.37,0l1.68,1.68,1.67-1.67h2.37v-2.37l1.68-1.68Z"/>
            </g>
          </g>
        </g>
      </g>
    </g>
  </g>
  <g class="cls-7">
    <g class="cls-6">
      <g id="Pattern-2" data-name="Pattern">
        <g>
          <g>
            <path class="cls-4" d="M10.09,78.59v4.28l3.02,3.02-3.03,3.03v4.27h-4.27s-3.02,3.02-3.02,3.02l-3.02-3.02h-4.28v-4.28s-3.02-3.02-3.02-3.02l3.02-3.02v-4.27s4.27,0,4.27,0l3.03-3.03,3.02,3.02h4.28ZM12.36,85.89l-2.8-2.8v-3.97h-3.97s-2.8-2.8-2.8-2.8L-.02,79.13h-3.96s0,3.96,0,3.96l-2.8,2.8,2.8,2.8v3.97S-.01,92.66-.01,92.66l2.8,2.8,2.8-2.8h3.96s0-3.96,0-3.96l2.81-2.81Z"/>
            <path class="cls-4" d="M7.37,81.31v2.68s1.9,1.9,1.9,1.9l-1.9,1.9v2.68s-2.68,0-2.68,0l-1.9,1.9-1.9-1.9H-1.79v-2.68l-1.9-1.9,1.9-1.9v-2.68H.89s1.9-1.9,1.9-1.9l1.9,1.9h2.68ZM8.51,85.89l-1.67-1.67v-2.37h-2.37l-1.67-1.67-1.68,1.68H-1.26s0,2.37,0,2.37l-1.67,1.67,1.67,1.67v2.37H1.12s1.67,1.68,1.67,1.68l1.67-1.67h2.37v-2.37s1.68-1.68,1.68-1.68Z"/>
          </g>
          <g>
            <path class="cls-4" d="M24.16,64.52v4.28l3.02,3.02-3.03,3.03v4.27h-4.27s-3.02,3.02-3.02,3.02l-3.02-3.02h-4.28s0-4.28,0-4.28l-3.02-3.02,3.02-3.02v-4.27s4.27,0,4.27,0l3.03-3.03,3.02,3.02h4.28ZM26.43,71.82l-2.8-2.8v-3.97h-3.97s-2.8-2.8-2.8-2.8l-2.81,2.81h-3.96s0,3.96,0,3.96l-2.8,2.8,2.8,2.8v3.97s3.97,0,3.97,0l2.8,2.8,2.8-2.8h3.96s0-3.96,0-3.96l2.81-2.81Z"/>
            <path class="cls-4" d="M21.44,67.24v2.68s1.9,1.9,1.9,1.9l-1.9,1.9v2.68s-2.68,0-2.68,0l-1.9,1.9-1.9-1.9h-2.68v-2.68l-1.9-1.9,1.9-1.9v-2.68h2.68s1.9-1.9,1.9-1.9l1.9,1.9h2.68ZM22.58,71.82l-1.67-1.67v-2.37h-2.37l-1.67-1.67-1.68,1.68h-2.37s0,2.37,0,2.37l-1.67,1.67,1.67,1.67v2.37h2.37s1.67,1.68,1.67,1.68l1.67-1.67h2.37v-2.37s1.68-1.68,1.68-1.68Z"/>
          </g>
          <g>
            <path class="cls-4" d="M10.09,50.45v4.28l3.02,3.02-3.03,3.03v4.27h-4.27l-3.02,3.02-3.02-3.02h-4.28s0-4.28,0-4.28l-3.02-3.02,3.02-3.02v-4.27s4.27,0,4.27,0l3.03-3.03,3.02,3.02h4.28ZM12.36,57.76l-2.8-2.8v-3.97h-3.97s-2.8-2.8-2.8-2.8L-.01,50.99h-3.96s0,3.96,0,3.96l-2.8,2.8,2.8,2.8v3.97s3.97,0,3.97,0l2.8,2.8,2.8-2.8h3.96v-3.96s2.81-2.81,2.81-2.81Z"/>
            <path class="cls-4" d="M7.37,53.18v2.68s1.9,1.9,1.9,1.9l-1.9,1.9v2.68s-2.68,0-2.68,0l-1.9,1.9-1.9-1.9H-1.78v-2.68l-1.9-1.9,1.9-1.9v-2.68H.89s1.9-1.9,1.9-1.9l1.9,1.9h2.68ZM8.51,57.76l-1.67-1.67v-2.37h-2.37l-1.67-1.67-1.68,1.68H-1.25s0,2.37,0,2.37l-1.67,1.67,1.67,1.67v2.37H1.12s1.67,1.68,1.67,1.68l1.67-1.67h2.37v-2.37s1.68-1.68,1.68-1.68Z"/>
          </g>
          <g>
            <path class="cls-4" d="M38.23,50.45v4.28s3.02,3.02,3.02,3.02l-3.03,3.03v4.27s-4.27,0-4.27,0l-3.02,3.02-3.02-3.02h-4.28s0-4.28,0-4.28l-3.02-3.02,3.02-3.02v-4.27s4.27,0,4.27,0l3.03-3.03,3.02,3.02h4.28ZM40.5,57.75l-2.8-2.8v-3.97h-3.97l-2.8-2.8-2.81,2.81h-3.96s0,3.96,0,3.96l-2.8,2.8,2.8,2.8v3.97s3.97,0,3.97,0l2.8,2.8,2.8-2.8h3.96v-3.96s2.81-2.81,2.81-2.81Z"/>
            <path class="cls-4" d="M35.5,53.17v2.68s1.9,1.9,1.9,1.9l-1.9,1.9v2.68s-2.68,0-2.68,0l-1.9,1.9-1.9-1.9h-2.68v-2.68l-1.9-1.9,1.9-1.9v-2.68h2.68s1.9-1.9,1.9-1.9l1.9,1.9h2.68ZM36.65,57.75l-1.67-1.67v-2.37h-2.37l-1.67-1.67-1.68,1.68h-2.37s0,2.37,0,2.37l-1.67,1.67,1.67,1.67v2.37h2.37s1.67,1.68,1.67,1.68l1.67-1.67h2.37v-2.37s1.68-1.68,1.68-1.68Z"/>
          </g>
          <g>
            <path class="cls-4" d="M24.16,36.39v4.28s3.02,3.02,3.02,3.02l-3.03,3.03v4.27h-4.27s-3.02,3.02-3.02,3.02l-3.02-3.02h-4.28s0-4.28,0-4.28l-3.02-3.02,3.02-3.02v-4.27s4.27,0,4.27,0l3.03-3.03,3.02,3.02h4.28ZM26.43,43.69l-2.8-2.8v-3.97h-3.97l-2.8-2.8-2.81,2.81h-3.96s0,3.96,0,3.96l-2.8,2.8,2.8,2.8v3.97s3.97,0,3.97,0l2.8,2.8,2.8-2.8h3.96v-3.96l2.81-2.81Z"/>
            <path class="cls-4" d="M21.44,39.11v2.68s1.9,1.9,1.9,1.9l-1.9,1.9v2.68s-2.68,0-2.68,0l-1.9,1.9-1.9-1.9h-2.68v-2.68l-1.9-1.9,1.9-1.9v-2.68h2.68s1.9-1.9,1.9-1.9l1.9,1.9h2.68ZM22.58,43.69l-1.67-1.67v-2.37h-2.37l-1.67-1.67-1.68,1.68h-2.37s0,2.37,0,2.37l-1.67,1.67,1.67,1.67v2.37h2.37s1.67,1.68,1.67,1.68l1.67-1.67h2.37v-2.37s1.68-1.68,1.68-1.68Z"/>
          </g>
          <g>
            <path class="cls-4" d="M10.1,22.32v4.28s3.02,3.02,3.02,3.02l-3.03,3.03v4.27h-4.27s-3.02,3.02-3.02,3.02l-3.02-3.02h-4.28s0-4.28,0-4.28l-3.02-3.02,3.02-3.02v-4.27s4.27,0,4.27,0l3.03-3.03,3.02,3.02h4.28ZM12.37,29.62l-2.8-2.8v-3.97h-3.97l-2.8-2.8L-.01,22.86h-3.96s0,3.96,0,3.96l-2.8,2.8,2.8,2.8v3.97s3.97,0,3.97,0l2.8,2.8,2.8-2.8h3.96v-3.96l2.81-2.81Z"/>
            <path class="cls-4" d="M7.37,25.04v2.68s1.9,1.9,1.9,1.9l-1.9,1.9v2.68s-2.68,0-2.68,0l-1.9,1.9-1.9-1.9H-1.78v-2.68l-1.9-1.9,1.9-1.9v-2.68H.9s1.9-1.9,1.9-1.9l1.9,1.9h2.68ZM8.52,29.62l-1.67-1.67v-2.37h-2.37l-1.67-1.67-1.68,1.68H-1.25s0,2.37,0,2.37l-1.67,1.67,1.67,1.67v2.37H1.12s1.67,1.68,1.67,1.68l1.67-1.67h2.37v-2.37s1.68-1.68,1.68-1.68Z"/>
          </g>
          <g>
            <path class="cls-4" d="M108.56,92.66v4.28s3.02,3.02,3.02,3.02l-3.03,3.03v4.27h-4.27l-3.02,3.02-3.02-3.02h-4.28s0-4.28,0-4.28l-3.02-3.02,3.02-3.02v-4.27h4.27l3.03-3.03,3.02,3.02h4.28ZM110.83,99.96l-2.8-2.8v-3.97s-3.97,0-3.97,0l-2.8-2.8-2.81,2.81h-3.96v3.96l-2.8,2.8,2.8,2.8v3.97h3.97s2.8,2.8,2.8,2.8l2.8-2.8h3.96v-3.96l2.81-2.81Z"/>
            <path class="cls-4" d="M105.83,95.38v2.68s1.9,1.9,1.9,1.9l-1.9,1.9v2.68h-2.68s-1.9,1.9-1.9,1.9l-1.9-1.9h-2.68v-2.68l-1.9-1.9,1.9-1.9v-2.68s2.68,0,2.68,0l1.9-1.9,1.9,1.9h2.68ZM106.98,99.96l-1.67-1.67v-2.37h-2.37l-1.68-1.68-1.68,1.68h-2.37s0,2.37,0,2.37l-1.68,1.68,1.68,1.68v2.37h2.37l1.67,1.67,1.68-1.68h2.37s0-2.37,0-2.37l1.68-1.68Z"/>
          </g>
          <g>
            <path class="cls-4" d="M94.49,78.59v4.28s3.02,3.02,3.02,3.02l-3.03,3.03v4.27h-4.27l-3.02,3.02-3.02-3.02h-4.28s0-4.28,0-4.28l-3.02-3.02,3.02-3.02v-4.27h4.27l3.03-3.03,3.02,3.02h4.28ZM96.76,85.9l-2.8-2.8v-3.97s-3.97,0-3.97,0l-2.8-2.8-2.81,2.81h-3.96v3.96l-2.8,2.8,2.8,2.8v3.97h3.97s2.8,2.8,2.8,2.8l2.8-2.8h3.96v-3.96l2.81-2.81Z"/>
            <path class="cls-4" d="M91.77,81.32v2.68l1.9,1.9-1.9,1.9v2.68h-2.68s-1.9,1.9-1.9,1.9l-1.9-1.9h-2.68v-2.68l-1.9-1.9,1.9-1.9v-2.68s2.68,0,2.68,0l1.9-1.9,1.9,1.9h2.68ZM92.91,85.89l-1.67-1.67v-2.37h-2.37l-1.68-1.68-1.68,1.68h-2.37s0,2.37,0,2.37l-1.68,1.68,1.68,1.68v2.37h2.37l1.67,1.67,1.68-1.68h2.37s0-2.37,0-2.37l1.68-1.68Z"/>
          </g>
          <g>
            <path class="cls-4" d="M108.56,64.52v4.28s3.02,3.02,3.02,3.02l-3.03,3.03v4.27h-4.27l-3.02,3.02-3.02-3.02h-4.28s0-4.28,0-4.28l-3.02-3.02,3.02-3.02v-4.27h4.27l3.03-3.03,3.02,3.02h4.28ZM110.83,71.83l-2.8-2.8v-3.97s-3.97,0-3.97,0l-2.8-2.8-2.81,2.81h-3.96v3.96l-2.8,2.8,2.8,2.8v3.97h3.97s2.8,2.8,2.8,2.8l2.8-2.8h3.96v-3.96l2.81-2.81Z"/>
            <path class="cls-4" d="M105.84,67.25v2.68s1.89,1.9,1.89,1.9l-1.9,1.9v2.68s-2.68,0-2.68,0l-1.9,1.9-1.9-1.9h-2.68s0-2.68,0-2.68l-1.9-1.9,1.9-1.9v-2.68s2.68,0,2.68,0l1.9-1.9,1.9,1.9h2.68ZM106.98,71.83l-1.67-1.67v-2.37s-2.37,0-2.37,0l-1.68-1.68-1.68,1.68h-2.37s0,2.37,0,2.37l-1.67,1.67,1.68,1.68v2.37s2.37,0,2.37,0l1.67,1.67,1.67-1.67h2.37v-2.37s1.68-1.68,1.68-1.68Z"/>
          </g>
          <g>
            <path class="cls-4" d="M80.43,64.53v4.28s3.02,3.02,3.02,3.02l-3.03,3.03v4.27h-4.27l-3.02,3.02-3.02-3.02h-4.28s0-4.28,0-4.28l-3.02-3.02,3.02-3.02v-4.27h4.27l3.03-3.03,3.02,3.02h4.28ZM82.7,71.83l-2.8-2.8v-3.97s-3.97,0-3.97,0l-2.8-2.8-2.81,2.81h-3.96v3.96l-2.8,2.8,2.8,2.8v3.97s3.97,0,3.97,0l2.8,2.8,2.8-2.8h3.96v-3.96l2.81-2.81Z"/>
            <path class="cls-4" d="M77.7,67.25v2.68l1.9,1.9-1.9,1.9v2.68h-2.68s-1.9,1.9-1.9,1.9l-1.9-1.9h-2.68v-2.68l-1.9-1.9,1.9-1.9v-2.68s2.68,0,2.68,0l1.9-1.9,1.9,1.9h2.68ZM78.85,71.83l-1.67-1.67v-2.37h-2.37l-1.68-1.68-1.68,1.68h-2.37s0,2.37,0,2.37l-1.68,1.68,1.68,1.68v2.37h2.37l1.67,1.67,1.68-1.68h2.37s0-2.37,0-2.37l1.68-1.68Z"/>
          </g>
          <g>
            <path class="cls-4" d="M66.36,50.46v4.28s3.02,3.02,3.02,3.02l-3.03,3.03v4.27h-4.27l-3.02,3.02-3.02-3.02h-4.28s0-4.28,0-4.28l-3.02-3.02,3.02-3.02v-4.27h4.27l3.03-3.03,3.02,3.02h4.28ZM68.63,57.77l-2.8-2.8v-3.97s-3.97,0-3.97,0l-2.8-2.8-2.81,2.81h-3.96v3.96l-2.8,2.8,2.8,2.8v3.97s3.97,0,3.97,0l2.8,2.8,2.8-2.8h3.96v-3.96s2.81-2.81,2.81-2.81Z"/>
            <path class="cls-4" d="M63.64,53.19v2.68l1.9,1.9-1.9,1.9v2.68h-2.68s-1.9,1.9-1.9,1.9l-1.9-1.9h-2.68v-2.68l-1.9-1.9,1.9-1.9v-2.68s2.68,0,2.68,0l1.9-1.9,1.9,1.9h2.68ZM64.78,57.76l-1.67-1.67v-2.37h-2.37l-1.67-1.67-1.68,1.68h-2.37v2.37s-1.67,1.68-1.67,1.68l1.67,1.67v2.37h2.37l1.67,1.67,1.68-1.68h2.37s0-2.37,0-2.37l1.68-1.68Z"/>
          </g>
          <g>
            <path class="cls-4" d="M94.5,50.46v4.28s3.02,3.02,3.02,3.02l-3.03,3.03v4.27h-4.27l-3.02,3.02-3.02-3.02h-4.28s0-4.28,0-4.28l-3.02-3.02,3.02-3.02v-4.27h4.27l3.03-3.03,3.02,3.02h4.28ZM96.77,57.76l-2.8-2.8v-3.97s-3.97,0-3.97,0l-2.8-2.8-2.81,2.81h-3.96v3.96l-2.8,2.8,2.8,2.8v3.97s3.97,0,3.97,0l2.8,2.8,2.8-2.8h3.96v-3.96l2.81-2.81Z"/>
            <path class="cls-4" d="M91.77,53.18v2.68s1.89,1.9,1.89,1.9l-1.9,1.9v2.68s-2.68,0-2.68,0l-1.9,1.9-1.9-1.9h-2.68s0-2.68,0-2.68l-1.9-1.9,1.9-1.9v-2.68s2.68,0,2.68,0l1.9-1.9,1.9,1.9h2.68ZM92.92,57.76l-1.67-1.67v-2.37s-2.37,0-2.37,0l-1.68-1.68-1.68,1.68h-2.37s0,2.37,0,2.37l-1.67,1.67,1.68,1.68v2.37s2.37,0,2.37,0l1.67,1.67,1.67-1.67h2.37v-2.37s1.68-1.68,1.68-1.68Z"/>
          </g>
          <g>
            <path class="cls-4" d="M80.43,36.39v4.28s3.02,3.02,3.02,3.02l-3.03,3.03v4.27h-4.27l-3.02,3.02-3.02-3.02h-4.28s0-4.28,0-4.28l-3.02-3.02,3.02-3.02v-4.27h4.27l3.03-3.03,3.02,3.02h4.28ZM82.7,43.7l-2.8-2.8v-3.97s-3.97,0-3.97,0l-2.8-2.8-2.81,2.81h-3.96v3.96l-2.8,2.8,2.8,2.8v3.97s3.97,0,3.97,0l2.8,2.8,2.8-2.8h3.96v-3.96l2.81-2.81Z"/>
            <path class="cls-4" d="M77.71,39.12v2.68s1.89,1.9,1.89,1.9l-1.9,1.9v2.68s-2.68,0-2.68,0l-1.9,1.9-1.9-1.9h-2.68s0-2.68,0-2.68l-1.9-1.9,1.9-1.9v-2.68h2.68s1.9-1.9,1.9-1.9l1.9,1.9h2.68ZM78.85,43.7l-1.67-1.67v-2.37s-2.37,0-2.37,0l-1.67-1.67-1.68,1.68h-2.37s0,2.37,0,2.37l-1.67,1.67,1.67,1.67v2.37s2.37,0,2.37,0l1.67,1.67,1.67-1.67h2.37v-2.37s1.68-1.68,1.68-1.68Z"/>
          </g>
          <g>
            <path class="cls-4" d="M108.57,36.39v4.28s3.02,3.02,3.02,3.02l-3.03,3.03v4.27h-4.27l-3.02,3.02-3.02-3.02h-4.28s0-4.28,0-4.28l-3.02-3.02,3.02-3.02v-4.27h4.27l3.03-3.03,3.02,3.02h4.28ZM110.84,43.69l-2.8-2.8v-3.97s-3.97,0-3.97,0l-2.8-2.8-2.81,2.81h-3.96v3.96l-2.8,2.8,2.8,2.8v3.97s3.97,0,3.97,0l2.8,2.8,2.8-2.8h3.96v-3.96l2.81-2.81Z"/>
            <path class="cls-4" d="M105.84,39.11v2.68l1.9,1.9-1.9,1.9v2.68h-2.68s-1.9,1.9-1.9,1.9l-1.9-1.9h-2.68v-2.68l-1.9-1.9,1.9-1.9v-2.68s2.68,0,2.68,0l1.9-1.9,1.9,1.9h2.68ZM106.99,43.69l-1.67-1.67v-2.37h-2.37l-1.68-1.68-1.68,1.68h-2.37s0,2.37,0,2.37l-1.68,1.68,1.68,1.68v2.37h2.37l1.67,1.67,1.68-1.68h2.37s0-2.37,0-2.37l1.68-1.68Z"/>
          </g>
          <g>
            <path class="cls-4" d="M94.5,22.32v4.28s3.02,3.02,3.02,3.02l-3.03,3.03v4.27h-4.27l-3.02,3.02-3.02-3.02h-4.28s0-4.28,0-4.28l-3.02-3.02,3.02-3.02v-4.27h4.27l3.03-3.03,3.02,3.02h4.28ZM96.77,29.63l-2.8-2.8v-3.97s-3.97,0-3.97,0l-2.8-2.8-2.81,2.81h-3.96v3.96l-2.8,2.8,2.8,2.8v3.97s3.97,0,3.97,0l2.8,2.8,2.8-2.8h3.96v-3.96l2.81-2.81Z"/>
            <path class="cls-4" d="M91.78,25.05v2.68l1.9,1.9-1.9,1.9v2.68h-2.68s-1.9,1.9-1.9,1.9l-1.9-1.9h-2.68v-2.68l-1.9-1.9,1.9-1.9v-2.68s2.68,0,2.68,0l1.9-1.9,1.9,1.9h2.68ZM92.92,29.63l-1.67-1.67v-2.37h-2.37l-1.67-1.67-1.68,1.68h-2.37v2.37s-1.67,1.68-1.67,1.68l1.67,1.67v2.37h2.37l1.67,1.67,1.68-1.68h2.37s0-2.37,0-2.37l1.68-1.68Z"/>
          </g>
          <g>
            <path class="cls-4" d="M108.57,8.26v4.28s3.02,3.02,3.02,3.02l-3.03,3.03v4.27h-4.27l-3.02,3.02-3.02-3.02h-4.28s0-4.28,0-4.28l-3.02-3.02,3.02-3.02v-4.27h4.27l3.03-3.03,3.02,3.02h4.28ZM110.84,15.56l-2.8-2.8v-3.97s-3.97,0-3.97,0l-2.8-2.8-2.81,2.81h-3.96v3.96l-2.8,2.8,2.8,2.8v3.97s3.97,0,3.97,0l2.8,2.8,2.8-2.8h3.96v-3.96l2.81-2.81Z"/>
            <path class="cls-4" d="M105.85,10.98v2.68l1.9,1.9-1.9,1.9v2.68s-2.68,0-2.68,0l-1.9,1.9-1.9-1.9h-2.68s0-2.68,0-2.68l-1.9-1.9,1.9-1.9v-2.68h2.68s1.9-1.9,1.9-1.9l1.9,1.9h2.68ZM106.99,15.56l-1.67-1.67v-2.37h-2.37l-1.67-1.67-1.68,1.68h-2.37s0,2.37,0,2.37l-1.67,1.67,1.67,1.67v2.37s2.37,0,2.37,0l1.67,1.67,1.67-1.67h2.37v-2.37s1.68-1.68,1.68-1.68Z"/>
          </g>
          <g>
            <path class="cls-4" d="M52.29,120.79v4.28s3.02,3.02,3.02,3.02l-3.03,3.03v4.27h-4.27s-3.02,3.02-3.02,3.02l-3.02-3.02h-4.28s0-4.28,0-4.28l-3.02-3.02,3.02-3.02v-4.27h4.27s3.03-3.03,3.03-3.03l3.02,3.02h4.28ZM54.56,128.09l-2.8-2.8v-3.97s-3.97,0-3.97,0l-2.8-2.8-2.81,2.81h-3.96v3.96l-2.8,2.8,2.8,2.8v3.97h3.97s2.8,2.8,2.8,2.8l2.8-2.8h3.96s0-3.96,0-3.96l2.81-2.81Z"/>
            <path class="cls-4" d="M49.57,123.51v2.68l1.9,1.9-1.9,1.9v2.68s-2.68,0-2.68,0l-1.9,1.9-1.9-1.9h-2.68v-2.68l-1.9-1.9,1.9-1.9v-2.68h2.68l1.9-1.9,1.9,1.9h2.68ZM50.71,128.09l-1.67-1.67v-2.37h-2.37l-1.68-1.68-1.68,1.68h-2.37v2.37s-1.68,1.67-1.68,1.67l1.68,1.68v2.37h2.37l1.67,1.67,1.67-1.67h2.37v-2.37s1.68-1.68,1.68-1.68Z"/>
          </g>
          <g>
            <path class="cls-4" d="M24.16,120.79v4.28l3.02,3.02-3.03,3.03v4.27h-4.27s-3.02,3.02-3.02,3.02l-3.02-3.02h-4.28s0-4.28,0-4.28l-3.02-3.02,3.02-3.02v-4.27h4.27s3.03-3.03,3.03-3.03l3.02,3.02h4.28ZM26.43,128.1l-2.8-2.8v-3.97h-3.97s-2.8-2.8-2.8-2.8l-2.81,2.81h-3.96v3.96l-2.8,2.8,2.8,2.8v3.97h3.97s2.8,2.8,2.8,2.8l2.8-2.8h3.96s0-3.96,0-3.96l2.81-2.81Z"/>
            <path class="cls-4" d="M21.43,123.52v2.68l1.9,1.9-1.9,1.9v2.68h-2.68s-1.9,1.9-1.9,1.9l-1.9-1.9h-2.68v-2.68l-1.9-1.9,1.9-1.9v-2.68h2.68s1.9-1.9,1.9-1.9l1.9,1.9h2.68ZM22.57,128.09l-1.67-1.67v-2.37h-2.37l-1.68-1.68-1.68,1.68h-2.37v2.37l-1.67,1.67,1.68,1.68v2.37h2.37l1.67,1.67,1.67-1.67h2.37s0-2.37,0-2.37l1.68-1.68Z"/>
          </g>
          <g>
            <path class="cls-4" d="M10.09,106.73v4.28l3.02,3.02-3.03,3.03v4.27h-4.27l-3.02,3.02-3.02-3.02h-4.28s0-4.28,0-4.28l-3.02-3.02,3.02-3.02v-4.27H-.24s3.03-3.03,3.03-3.03l3.02,3.02h4.28ZM12.36,114.03l-2.8-2.8v-3.97h-3.97s-2.8-2.8-2.8-2.8L-.02,107.26h-3.96v3.96l-2.8,2.8,2.8,2.8v3.97H-.01s2.8,2.8,2.8,2.8l2.8-2.8h3.96v-3.96s2.81-2.81,2.81-2.81Z"/>
            <path class="cls-4" d="M7.37,109.45v2.68l1.9,1.9-1.9,1.9v2.68h-2.68s-1.9,1.9-1.9,1.9l-1.9-1.9H-1.79v-2.68l-1.9-1.9,1.9-1.9v-2.68H.89s1.9-1.9,1.9-1.9l1.9,1.9h2.68ZM8.51,114.03l-1.67-1.67v-2.37h-2.37l-1.68-1.68-1.68,1.68H-1.26v2.37l-1.67,1.67,1.68,1.68v2.37H1.12l1.67,1.67,1.67-1.67h2.37s0-2.37,0-2.37l1.68-1.68Z"/>
          </g>
          <g>
            <path class="cls-4" d="M38.22,106.72v4.28s3.02,3.02,3.02,3.02l-3.03,3.03v4.27h-4.27s-3.02,3.02-3.02,3.02l-3.02-3.02h-4.28s0-4.28,0-4.28l-3.02-3.02,3.02-3.02v-4.27h4.27s3.03-3.03,3.03-3.03l3.02,3.02h4.28ZM40.49,114.03l-2.8-2.8v-3.97s-3.97,0-3.97,0l-2.8-2.8-2.81,2.81h-3.96v3.96l-2.8,2.8,2.8,2.8v3.97h3.97s2.8,2.8,2.8,2.8l2.8-2.8h3.96s0-3.96,0-3.96l2.81-2.81Z"/>
            <path class="cls-4" d="M35.5,109.45v2.68l1.9,1.9-1.9,1.9v2.68s-2.68,0-2.68,0l-1.9,1.9-1.9-1.9h-2.68v-2.68l-1.9-1.9,1.9-1.9v-2.68h2.68l1.9-1.9,1.9,1.9h2.68ZM36.64,114.03l-1.67-1.67v-2.37h-2.37l-1.68-1.68-1.68,1.68h-2.37v2.37s-1.68,1.67-1.68,1.67l1.68,1.68v2.37h2.37l1.67,1.67,1.67-1.67h2.37v-2.37s1.68-1.68,1.68-1.68Z"/>
          </g>
          <g>
            <path class="cls-4" d="M24.16,92.66v4.28s3.02,3.02,3.02,3.02l-3.03,3.03v4.27h-4.27l-3.02,3.02-3.02-3.02h-4.28s0-4.28,0-4.28l-3.02-3.02,3.02-3.02v-4.27h4.27s3.03-3.03,3.03-3.03l3.02,3.02h4.28ZM26.43,99.96l-2.8-2.8v-3.97s-3.97,0-3.97,0l-2.8-2.8-2.81,2.81h-3.96v3.96l-2.8,2.8,2.8,2.8v3.97h3.97s2.8,2.8,2.8,2.8l2.8-2.8h3.96v-3.96s2.81-2.81,2.81-2.81Z"/>
            <path class="cls-4" d="M21.44,95.38v2.68l1.9,1.9-1.9,1.9v2.68s-2.68,0-2.68,0l-1.9,1.9-1.9-1.9h-2.68v-2.68l-1.9-1.9,1.9-1.9v-2.68h2.68l1.9-1.9,1.9,1.9h2.68ZM22.58,99.96l-1.67-1.67v-2.37h-2.37l-1.68-1.68-1.68,1.68h-2.37v2.37s-1.68,1.67-1.68,1.67l1.68,1.68v2.37h2.37l1.67,1.67,1.67-1.67h2.37v-2.37s1.68-1.68,1.68-1.68Z"/>
          </g>
          <g>
            <path class="cls-4" d="M80.42,120.78v4.28s3.02,3.02,3.02,3.02l-3.03,3.03v4.27h-4.27s-3.02,3.02-3.02,3.02l-3.02-3.02h-4.28v-4.28s-3.02-3.02-3.02-3.02l3.02-3.02v-4.27h4.27s3.03-3.03,3.03-3.03l3.02,3.02h4.28ZM82.69,128.09l-2.8-2.8v-3.97s-3.97,0-3.97,0l-2.8-2.8-2.81,2.81h-3.96v3.96l-2.8,2.8,2.8,2.8v3.97h3.97l2.8,2.8,2.8-2.8h3.96s0-3.96,0-3.96l2.81-2.81Z"/>
            <path class="cls-4" d="M77.7,123.51v2.68l1.9,1.9-1.9,1.9v2.68s-2.68,0-2.68,0l-1.9,1.9-1.9-1.9h-2.68v-2.68l-1.9-1.9,1.9-1.9v-2.68h2.68l1.9-1.9,1.9,1.9h2.68ZM78.84,128.09l-1.67-1.67v-2.37h-2.37l-1.68-1.68-1.68,1.68h-2.37v2.37s-1.68,1.67-1.68,1.67l1.68,1.68v2.37h2.37l1.67,1.67,1.67-1.67h2.37v-2.37s1.68-1.68,1.68-1.68Z"/>
          </g>
          <g>
            <path class="cls-4" d="M66.36,106.72v4.28s3.02,3.02,3.02,3.02l-3.03,3.03v4.27h-4.27s-3.02,3.02-3.02,3.02l-3.02-3.02h-4.28v-4.28s-3.02-3.02-3.02-3.02l3.02-3.02v-4.27h4.27s3.03-3.03,3.03-3.03l3.02,3.02h4.28ZM68.63,114.02l-2.8-2.8v-3.97s-3.97,0-3.97,0l-2.8-2.8-2.81,2.81h-3.96v3.96l-2.8,2.8,2.8,2.8v3.97h3.97l2.8,2.8,2.8-2.8h3.96s0-3.96,0-3.96l2.81-2.81Z"/>
            <path class="cls-4" d="M63.64,109.44v2.68l1.9,1.9-1.9,1.9v2.68s-2.68,0-2.68,0l-1.9,1.9-1.9-1.9h-2.68v-2.68l-1.9-1.9,1.9-1.9v-2.68h2.68l1.9-1.9,1.9,1.9h2.68ZM64.78,114.02l-1.67-1.67v-2.37h-2.37l-1.68-1.68-1.68,1.68h-2.37v2.37s-1.68,1.67-1.68,1.67l1.68,1.68v2.37h2.37l1.67,1.67,1.67-1.67h2.37v-2.37s1.68-1.68,1.68-1.68Z"/>
          </g>
          <g>
            <path class="cls-4" d="M94.49,106.72v4.28s3.02,3.02,3.02,3.02l-3.03,3.03v4.27s-4.27,0-4.27,0l-3.02,3.02-3.02-3.02h-4.28v-4.28s-3.02-3.02-3.02-3.02l3.02-3.02v-4.27h4.27l3.03-3.03,3.02,3.02h4.28ZM96.76,114.02l-2.8-2.8v-3.97s-3.97,0-3.97,0l-2.8-2.8-2.81,2.81h-3.96v3.96s-2.8,2.8-2.8,2.8l2.8,2.8v3.97h3.97l2.8,2.8,2.8-2.8h3.96v-3.96s2.81-2.81,2.81-2.81Z"/>
            <path class="cls-4" d="M91.77,109.44v2.68l1.9,1.9-1.9,1.9v2.68s-2.68,0-2.68,0l-1.9,1.9-1.9-1.9h-2.68v-2.68l-1.9-1.9,1.9-1.9v-2.68h2.68l1.9-1.9,1.9,1.9h2.68ZM92.91,114.02l-1.67-1.67v-2.37h-2.37l-1.68-1.68-1.68,1.68h-2.37v2.37s-1.68,1.67-1.68,1.67l1.68,1.68v2.37h2.37l1.67,1.67,1.67-1.67h2.37v-2.37s1.68-1.68,1.68-1.68Z"/>
          </g>
          <g>
            <path class="cls-4" d="M80.43,92.65v4.28s3.02,3.02,3.02,3.02l-3.03,3.03v4.27s-4.27,0-4.27,0l-3.02,3.02-3.02-3.02h-4.28v-4.28s-3.02-3.02-3.02-3.02l3.02-3.02v-4.27h4.27l3.03-3.03,3.02,3.02h4.28ZM82.7,99.95l-2.8-2.8v-3.97s-3.97,0-3.97,0l-2.8-2.8-2.81,2.81h-3.96v3.96s-2.8,2.8-2.8,2.8l2.8,2.8v3.97h3.97l2.8,2.8,2.8-2.8h3.96v-3.96s2.81-2.81,2.81-2.81Z"/>
            <path class="cls-4" d="M77.7,95.37v2.68l1.9,1.9-1.9,1.9v2.68s-2.68,0-2.68,0l-1.9,1.9-1.9-1.9h-2.68v-2.68l-1.9-1.9,1.9-1.9v-2.68h2.68l1.9-1.9,1.9,1.9h2.68ZM78.85,99.95l-1.67-1.67v-2.37h-2.37l-1.68-1.68-1.68,1.68h-2.37v2.37s-1.68,1.67-1.68,1.67l1.68,1.68v2.37h2.37l1.67,1.67,1.67-1.67h2.37v-2.37s1.68-1.68,1.68-1.68Z"/>
          </g>
          <g>
            <path class="cls-4" d="M52.29,92.65v4.28s3.02,3.02,3.02,3.02l-3.03,3.03v4.27h-4.27s-3.02,3.02-3.02,3.02l-3.02-3.02h-4.28v-4.28s-3.02-3.02-3.02-3.02l3.02-3.02v-4.27h4.27s3.03-3.03,3.03-3.03l3.02,3.02h4.28ZM54.56,99.96l-2.8-2.8v-3.97s-3.97,0-3.97,0l-2.8-2.8-2.81,2.81h-3.96v3.96l-2.8,2.8,2.8,2.8v3.97h3.97l2.8,2.8,2.8-2.8h3.96s0-3.96,0-3.96l2.81-2.81Z"/>
            <path class="cls-4" d="M49.57,95.38v2.68l1.9,1.9-1.9,1.9v2.68s-2.68,0-2.68,0l-1.9,1.9-1.9-1.9h-2.68v-2.68l-1.9-1.9,1.9-1.9v-2.68h2.68l1.9-1.9,1.9,1.9h2.68ZM50.71,99.96l-1.67-1.67v-2.37h-2.37l-1.68-1.68-1.68,1.68h-2.37v2.37s-1.68,1.67-1.68,1.67l1.68,1.68v2.37h2.37l1.67,1.67,1.67-1.67h2.37v-2.37s1.68-1.68,1.68-1.68Z"/>
          </g>
          <g>
            <path class="cls-4" d="M38.23,78.59v4.28s3.02,3.02,3.02,3.02l-3.03,3.03v4.27h-4.27l-3.02,3.02-3.02-3.02h-4.28v-4.28s-3.02-3.02-3.02-3.02l3.02-3.02v-4.27h4.27s3.03-3.03,3.03-3.03l3.02,3.02h4.28ZM40.5,85.89l-2.8-2.8v-3.97s-3.97,0-3.97,0l-2.8-2.8-2.81,2.81h-3.96v3.96l-2.8,2.8,2.8,2.8v3.97h3.97l2.8,2.8,2.8-2.8h3.96v-3.96s2.81-2.81,2.81-2.81Z"/>
            <path class="cls-4" d="M35.5,81.31v2.68l1.9,1.9-1.9,1.9v2.68s-2.68,0-2.68,0l-1.9,1.9-1.9-1.9h-2.68v-2.68l-1.9-1.9,1.9-1.9v-2.68h2.68l1.9-1.9,1.9,1.9h2.68ZM36.65,85.89l-1.67-1.67v-2.37h-2.37l-1.68-1.68-1.68,1.68h-2.37v2.37s-1.68,1.67-1.68,1.67l1.68,1.68v2.37h2.37l1.67,1.67,1.67-1.67h2.37v-2.37s1.68-1.68,1.68-1.68Z"/>
          </g>
          <g>
            <path class="cls-4" d="M66.36,78.59v4.28s3.02,3.02,3.02,3.02l-3.03,3.03v4.27s-4.27,0-4.27,0l-3.02,3.02-3.02-3.02h-4.28v-4.28s-3.02-3.02-3.02-3.02l3.02-3.02v-4.27h4.27l3.03-3.03,3.02,3.02h4.28ZM68.63,85.89l-2.8-2.8v-3.97s-3.97,0-3.97,0l-2.8-2.8-2.81,2.81h-3.96v3.96s-2.8,2.8-2.8,2.8l2.8,2.8v3.97h3.97l2.8,2.8,2.8-2.8h3.96v-3.96s2.81-2.81,2.81-2.81Z"/>
            <path class="cls-4" d="M63.64,81.31v2.68l1.9,1.9-1.9,1.9v2.68s-2.68,0-2.68,0l-1.9,1.9-1.9-1.9h-2.68v-2.68l-1.9-1.9,1.9-1.9v-2.68h2.68l1.9-1.9,1.9,1.9h2.68ZM64.78,85.89l-1.67-1.67v-2.37h-2.37l-1.68-1.68-1.68,1.68h-2.37v2.37s-1.68,1.67-1.68,1.67l1.68,1.68v2.37h2.37l1.67,1.67,1.67-1.67h2.37v-2.37s1.68-1.68,1.68-1.68Z"/>
          </g>
          <g>
            <path class="cls-4" d="M52.3,64.52v4.28s3.02,3.02,3.02,3.02l-3.03,3.03v4.27h-4.27s-3.02,3.02-3.02,3.02l-3.02-3.02h-4.28v-4.28s-3.02-3.02-3.02-3.02l3.02-3.02v-4.27h4.27l3.03-3.03,3.02,3.02h4.28ZM54.57,71.82l-2.8-2.8v-3.97s-3.97,0-3.97,0l-2.8-2.8-2.81,2.81h-3.96v3.96s-2.8,2.8-2.8,2.8l2.8,2.8v3.97h3.97l2.8,2.8,2.8-2.8h3.96v-3.96l2.81-2.81Z"/>
            <path class="cls-4" d="M49.57,67.24v2.68l1.9,1.9-1.9,1.9v2.68s-2.68,0-2.68,0l-1.9,1.9-1.9-1.9h-2.68v-2.68l-1.9-1.9,1.9-1.9v-2.68h2.68l1.9-1.9,1.9,1.9h2.68ZM50.72,71.82l-1.67-1.67v-2.37h-2.37l-1.68-1.68-1.68,1.68h-2.37v2.37s-1.68,1.67-1.68,1.67l1.68,1.68v2.37h2.37l1.67,1.67,1.67-1.67h2.37v-2.37s1.68-1.68,1.68-1.68Z"/>
          </g>
          <g>
            <path class="cls-4" d="M52.29,36.39v4.28l3.02,3.02-3.03,3.03v4.27s-4.27,0-4.27,0l-3.02,3.02-3.02-3.02h-4.28v-4.28l-3.02-3.02,3.02-3.02v-4.27h4.27l3.03-3.03,3.02,3.02h4.28ZM54.56,43.69l-2.8-2.8v-3.97h-3.97l-2.8-2.8-2.81,2.81h-3.96v3.96l-2.8,2.8,2.8,2.8v3.97h3.97l2.8,2.8,2.8-2.8h3.96s0-3.96,0-3.96l2.81-2.81Z"/>
            <path class="cls-4" d="M49.56,39.11v2.68l1.9,1.9-1.9,1.9v2.68h-2.68l-1.9,1.9-1.9-1.9h-2.68v-2.68l-1.9-1.9,1.9-1.9v-2.68s2.68,0,2.68,0l1.9-1.9,1.9,1.9h2.68ZM50.71,43.69l-1.68-1.68v-2.37h-2.37l-1.68-1.68-1.68,1.68h-2.37v2.37s-1.67,1.68-1.67,1.68l1.68,1.68v2.37h2.37l1.68,1.68,1.68-1.68h2.37v-2.37s1.68-1.68,1.68-1.68Z"/>
          </g>
          <g>
            <path class="cls-4" d="M38.22,22.32v4.28l3.02,3.02-3.03,3.03v4.27h-4.27l-3.02,3.02-3.02-3.02h-4.28v-4.28l-3.02-3.02,3.02-3.02v-4.27h4.27l3.03-3.03,3.02,3.02h4.28ZM40.49,29.62l-2.8-2.8v-3.97s-3.97,0-3.97,0l-2.8-2.8-2.81,2.81h-3.96v3.96l-2.8,2.8,2.8,2.8v3.97h3.97l2.8,2.8,2.8-2.8h3.96v-3.96l2.81-2.81Z"/>
            <path class="cls-4" d="M35.5,25.04v2.68l1.9,1.9-1.9,1.9v2.68h-2.68l-1.9,1.9-1.9-1.9h-2.68v-2.68l-1.9-1.9,1.9-1.9v-2.68h2.68s1.9-1.9,1.9-1.9l1.9,1.9h2.68ZM36.64,29.62l-1.68-1.68v-2.37h-2.37l-1.68-1.68-1.68,1.68h-2.37v2.37l-1.68,1.68,1.68,1.68v2.37h2.37l1.68,1.68,1.68-1.68h2.37v-2.37s1.68-1.68,1.68-1.68Z"/>
          </g>
          <g>
            <path class="cls-4" d="M66.35,22.32v4.28s3.02,3.02,3.02,3.02l-3.03,3.03v4.27s-4.27,0-4.27,0l-3.02,3.02-3.02-3.02h-4.28v-4.28l-3.02-3.02,3.02-3.02v-4.27h4.27l3.03-3.03,3.02,3.02h4.28ZM68.63,29.62l-2.8-2.8v-3.97s-3.97,0-3.97,0l-2.8-2.8-2.81,2.81h-3.96v3.96l-2.8,2.8,2.8,2.8v3.97h3.97l2.8,2.8,2.8-2.8h3.96s0-3.96,0-3.96l2.81-2.81Z"/>
            <path class="cls-4" d="M63.63,25.04v2.68s1.9,1.9,1.9,1.9l-1.9,1.9v2.68h-2.68s-1.9,1.9-1.9,1.9l-1.9-1.9h-2.68s0-2.68,0-2.68l-1.9-1.9,1.9-1.9v-2.68h2.68s1.9-1.9,1.9-1.9l1.9,1.9h2.68ZM64.77,29.62l-1.68-1.68v-2.37s-2.37,0-2.37,0l-1.68-1.68-1.68,1.68h-2.37s0,2.37,0,2.37l-1.67,1.67,1.68,1.68v2.37s2.37,0,2.37,0l1.68,1.68,1.67-1.67h2.37v-2.37l1.68-1.68Z"/>
          </g>
          <g>
            <path class="cls-4" d="M52.29,8.25v4.28s3.02,3.02,3.02,3.02l-3.03,3.03v4.27h-4.27l-3.02,3.02-3.02-3.02h-4.28v-4.28l-3.02-3.02,3.02-3.02v-4.27h4.27l3.03-3.03,3.02,3.02h4.28ZM54.56,15.55l-2.8-2.8v-3.97s-3.97,0-3.97,0l-2.8-2.8-2.81,2.81h-3.96v3.96l-2.8,2.8,2.8,2.8v3.97h3.97l2.8,2.8,2.8-2.8h3.96v-3.96l2.81-2.81Z"/>
            <path class="cls-4" d="M49.57,10.98v2.68s1.9,1.9,1.9,1.9l-1.9,1.9v2.68h-2.68s-1.9,1.9-1.9,1.9l-1.9-1.9h-2.68s0-2.68,0-2.68l-1.9-1.9,1.9-1.9v-2.68h2.68l1.9-1.9,1.9,1.9h2.68ZM50.71,15.55l-1.68-1.68v-2.37s-2.37,0-2.37,0l-1.68-1.68-1.68,1.68h-2.37v2.37s-1.68,1.67-1.68,1.67l1.68,1.68v2.37s2.37,0,2.37,0l1.68,1.68,1.67-1.67h2.37v-2.37l1.68-1.68Z"/>
          </g>
          <g>
            <path class="cls-4" d="M24.16,8.26v4.28l3.02,3.02-3.03,3.03v4.27h-4.27l-3.02,3.02-3.02-3.02h-4.28v-4.28l-3.02-3.02,3.02-3.02v-4.27h4.27l3.03-3.03,3.02,3.02h4.28ZM26.43,15.56l-2.8-2.8v-3.97h-3.97l-2.8-2.8-2.81,2.81h-3.96v3.96l-2.8,2.8,2.8,2.8v3.97h3.97l2.8,2.8,2.8-2.8h3.96v-3.96l2.81-2.81Z"/>
            <path class="cls-4" d="M21.43,10.98v2.68l1.9,1.9-1.9,1.9v2.68h-2.68l-1.9,1.9-1.9-1.9h-2.68v-2.68l-1.9-1.9,1.9-1.9v-2.68h2.68s1.9-1.9,1.9-1.9l1.9,1.9h2.68ZM22.57,15.56l-1.68-1.68v-2.37h-2.37l-1.68-1.68-1.68,1.68h-2.37v2.37l-1.68,1.68,1.68,1.68v2.37h2.37l1.68,1.68,1.68-1.68h2.37v-2.37s1.68-1.68,1.68-1.68Z"/>
          </g>
          <g>
            <path class="cls-4" d="M10.09-5.81V-1.53l3.02,3.02-3.03,3.03v4.27h-4.27l-3.02,3.02L-.23,8.79h-4.28v-4.28l-3.02-3.02,3.02-3.02v-4.27H-.24l3.03-3.03,3.02,3.02h4.28ZM12.36,1.49l-2.8-2.8v-3.97h-3.97l-2.8-2.8L-.02-5.27h-3.96V-1.31l-2.8,2.8,2.8,2.8v3.97H-.01l2.8,2.8,2.8-2.8h3.96v-3.96l2.81-2.81Z"/>
            <path class="cls-4" d="M7.37-3.09V-.4l1.9,1.9-1.9,1.9v2.68h-2.68l-1.9,1.9-1.9-1.9H-1.79v-2.68l-1.9-1.9L-1.79-.41v-2.68H.89s1.9-1.9,1.9-1.9l1.9,1.9h2.68ZM8.51,1.49L6.83-.18v-2.37h-2.37l-1.68-1.68-1.68,1.68H-1.26V-.19l-1.68,1.68,1.68,1.68v2.37H1.12l1.68,1.68,1.68-1.68h2.37v-2.37s1.68-1.68,1.68-1.68Z"/>
          </g>
          <g>
            <path class="cls-4" d="M38.22-5.81V-1.53s3.02,3.02,3.02,3.02l-3.03,3.03v4.27h-4.27l-3.02,3.02-3.02-3.02h-4.28v-4.28l-3.02-3.02,3.02-3.02v-4.27h4.27l3.03-3.03,3.02,3.02h4.28ZM40.5,1.49l-2.8-2.8v-3.97s-3.97,0-3.97,0l-2.8-2.8-2.81,2.81h-3.96V-1.32l-2.8,2.8,2.8,2.8v3.97h3.97l2.8,2.8,2.8-2.8h3.96v-3.96l2.81-2.81Z"/>
            <path class="cls-4" d="M35.5-3.09V-.41s1.9,1.9,1.9,1.9l-1.9,1.9v2.68h-2.68s-1.9,1.9-1.9,1.9l-1.9-1.9h-2.68s0-2.68,0-2.68l-1.9-1.9,1.9-1.9v-2.68h2.68l1.9-1.9,1.9,1.9h2.68ZM36.64,1.49l-1.68-1.68v-2.37s-2.37,0-2.37,0l-1.68-1.68-1.68,1.68h-2.37V-.19s-1.68,1.67-1.68,1.67l1.68,1.68v2.37s2.37,0,2.37,0l1.68,1.68,1.67-1.67h2.37v-2.37l1.68-1.68Z"/>
          </g>
          <g>
            <path class="cls-4" d="M80.42,8.25v4.28l3.02,3.02-3.03,3.03v4.27s-4.27,0-4.27,0l-3.02,3.02-3.02-3.02h-4.28v-4.28l-3.02-3.02,3.02-3.02v-4.27h4.27l3.03-3.03,3.02,3.02h4.28ZM82.69,15.55l-2.8-2.8v-3.97h-3.97l-2.8-2.8-2.81,2.81h-3.96v3.96l-2.8,2.8,2.8,2.8v3.97h3.97l2.8,2.8,2.8-2.8h3.96s0-3.96,0-3.96l2.81-2.81Z"/>
            <path class="cls-4" d="M77.7,10.97v2.68l1.9,1.9-1.9,1.9v2.68h-2.68l-1.9,1.9-1.9-1.9h-2.68v-2.68l-1.9-1.9,1.9-1.9v-2.68s2.68,0,2.68,0l1.9-1.9,1.9,1.9h2.68ZM78.84,15.55l-1.68-1.68v-2.37h-2.37l-1.68-1.68-1.68,1.68h-2.37v2.37s-1.67,1.68-1.67,1.68l1.68,1.68v2.37h2.37l1.68,1.68,1.68-1.68h2.37v-2.37s1.68-1.68,1.68-1.68Z"/>
          </g>
          <g>
            <path class="cls-4" d="M66.36-5.82V-1.54l3.02,3.02-3.03,3.03v4.27h-4.27l-3.02,3.02-3.02-3.02h-4.28v-4.28l-3.02-3.02,3.02-3.02v-4.27h4.27l3.03-3.03,3.02,3.02h4.28ZM68.63,1.49l-2.8-2.8v-3.97h-3.97l-2.8-2.8-2.81,2.81h-3.96V-1.32l-2.8,2.8,2.8,2.8v3.97h3.97l2.8,2.8,2.8-2.8h3.96v-3.96l2.81-2.81Z"/>
            <path class="cls-4" d="M63.64-3.09V-.41l1.9,1.9-1.9,1.9v2.68h-2.68l-1.9,1.9-1.9-1.9h-2.68v-2.68l-1.9-1.9,1.9-1.9v-2.68h2.68s1.9-1.9,1.9-1.9l1.9,1.9h2.68ZM64.78,1.48l-1.68-1.68v-2.37h-2.37l-1.68-1.68-1.68,1.68h-2.37V-.19l-1.68,1.68,1.68,1.68v2.37h2.37l1.68,1.68,1.68-1.68h2.37v-2.37s1.68-1.68,1.68-1.68Z"/>
          </g>
          <g>
            <path class="cls-4" d="M94.49-5.82V-1.54s3.02,3.02,3.02,3.02l-3.03,3.03v4.27s-4.27,0-4.27,0l-3.02,3.02-3.02-3.02h-4.28v-4.28l-3.02-3.02,3.02-3.02v-4.27h4.27l3.03-3.03,3.02,3.02h4.28ZM96.76,1.48l-2.8-2.8v-3.97s-3.97,0-3.97,0l-2.8-2.8-2.81,2.81h-3.96V-1.33l-2.8,2.8,2.8,2.8v3.97h3.97l2.8,2.8,2.8-2.8h3.96s0-3.96,0-3.96l2.81-2.81Z"/>
            <path class="cls-4" d="M91.77-3.1V-.41l1.9,1.9-1.9,1.9v2.68h-2.68s-1.9,1.9-1.9,1.9l-1.9-1.9h-2.68s0-2.68,0-2.68l-1.9-1.9,1.9-1.9v-2.68h2.68s1.9-1.9,1.9-1.9l1.9,1.9h2.68ZM92.91,1.48l-1.68-1.68v-2.37h-2.37l-1.68-1.68-1.68,1.68h-2.37s0,2.37,0,2.37l-1.67,1.67,1.68,1.68v2.37s2.37,0,2.37,0l1.68,1.68,1.67-1.67h2.37v-2.37l1.68-1.68Z"/>
          </g>
        </g>
      </g>
    </g>
  </g>
</svg>