<svg viewBox="0 0 50 50" fill="currentColor" xmlns="http://www.w3.org/2000/svg">
    <path d="M6.04175 35.1041V26.25C6.04175 25.5075 6.2521 24.7536 6.67279 23.9884C7.09345 23.2232 7.71644 22.7097 8.54175 22.448V18.5417C8.54175 17.4333 8.92435 16.4965 9.68956 15.7313C10.4548 14.9661 11.3916 14.5835 12.5 14.5835H22.3959C22.9516 14.5835 23.4418 14.679 23.8664 14.87C24.291 15.0609 24.6688 15.3474 25 15.7293C25.3312 15.3474 25.7091 15.0609 26.1337 14.87C26.5583 14.679 27.0484 14.5835 27.6041 14.5835H37.5C38.6084 14.5835 39.5453 14.9661 40.3105 15.7313C41.0757 16.4965 41.4583 17.4333 41.4583 18.5417V22.448C42.2836 22.7097 42.9066 23.2232 43.3273 23.9884C43.748 24.7536 43.9583 25.5075 43.9583 26.25V35.1041C43.9583 35.4878 43.8295 35.8094 43.5719 36.069C43.3143 36.3285 42.9952 36.4583 42.6144 36.4583C42.2336 36.4583 41.9111 36.3285 41.6466 36.069C41.3822 35.8094 41.25 35.4878 41.25 35.1041V32.7083H8.75003V35.0932C8.75003 35.4737 8.62124 35.7964 8.36368 36.0612C8.10611 36.3259 7.78694 36.4583 7.40618 36.4583C7.02541 36.4583 6.70282 36.3285 6.43841 36.069C6.17397 35.8094 6.04175 35.4878 6.04175 35.1041ZM26.3541 22.2917H38.75V18.5417C38.75 18.1876 38.6302 17.8907 38.3907 17.6511C38.1511 17.4115 37.8542 17.2917 37.5 17.2917H27.6041C27.25 17.2917 26.9531 17.4115 26.7135 17.6511C26.4739 17.8907 26.3541 18.1876 26.3541 18.5417V22.2917ZM11.25 22.2917H23.6459V18.5417C23.6459 18.1876 23.5261 17.8907 23.2865 17.6511C23.047 17.4115 22.7501 17.2917 22.3959 17.2917H12.5C12.1459 17.2917 11.849 17.4115 11.6094 17.6511C11.3698 17.8907 11.25 18.1876 11.25 18.5417V22.2917ZM8.75003 30H41.25V26.25C41.25 25.8958 41.1302 25.599 40.8907 25.3594C40.6511 25.1198 40.3542 25 40 25H10C9.64586 25 9.34899 25.1198 9.1094 25.3594C8.86982 25.599 8.75003 25.8958 8.75003 26.25V30Z" fill="currentColor"/>
</svg>