<svg  viewBox="0 0 50 50" fill="currentColor" xmlns="http://www.w3.org/2000/svg">
  <path d="M17.2596 37.7081V39.8796C17.2596 40.3181 17.1059 40.6908 16.7985 40.9977C16.4911 41.3047 16.1179 41.4581 15.6788 41.4581C15.2397 41.4581 14.8672 41.3047 14.5614 40.9977C14.2556 40.6908 14.1027 40.3181 14.1027 39.8796V36.4621C13.2773 36.0028 12.5609 35.2602 11.9532 34.2346C11.3456 33.209 11.0417 32.0805 11.0417 30.8492V12.4998C11.0417 10.3601 11.9651 8.74882 13.8118 7.66594C15.6584 6.58303 19.3876 6.04156 24.9993 6.04156C30.5633 6.04156 34.2808 6.58627 36.1518 7.67568C38.0228 8.76509 38.9583 10.3731 38.9583 12.4998V30.8492C38.9583 32.0805 38.6544 33.209 38.0468 34.2346C37.4391 35.2602 36.7227 36.0028 35.8973 36.4621V39.8796C35.8973 40.3181 35.7436 40.6908 35.4362 40.9977C35.1289 41.3047 34.7556 41.4581 34.3165 41.4581C33.8774 41.4581 33.5049 41.3047 33.1991 40.9977C32.8933 40.6908 32.7404 40.3181 32.7404 39.8796V37.7081H17.2596ZM13.75 22.2916H36.25V14.5191H13.75V22.2916ZM18.7547 32.0992C19.3392 32.0992 19.8344 31.8946 20.2404 31.4855C20.6463 31.0764 20.8493 30.5796 20.8493 29.9951C20.8493 29.4107 20.6448 28.9155 20.2356 28.5095C19.8265 28.1035 19.3297 27.9005 18.7453 27.9005C18.1608 27.9005 17.6656 28.1051 17.2596 28.5142C16.8537 28.9233 16.6507 29.4201 16.6507 30.0046C16.6507 30.589 16.8552 31.0842 17.2644 31.4902C17.6735 31.8962 18.1703 32.0992 18.7547 32.0992ZM31.2547 32.0992C31.8392 32.0992 32.3344 31.8946 32.7404 31.4855C33.1463 31.0764 33.3493 30.5796 33.3493 29.9951C33.3493 29.4107 33.1448 28.9155 32.7356 28.5095C32.3265 28.1035 31.8297 27.9005 31.2453 27.9005C30.6608 27.9005 30.1656 28.1051 29.7596 28.5142C29.3537 28.9233 29.1507 29.4201 29.1507 30.0046C29.1507 30.589 29.3552 31.0842 29.7644 31.4902C30.1735 31.8962 30.6703 32.0992 31.2547 32.0992ZM13.6498 11.8108H36.3221C35.7078 10.5634 34.5653 9.74143 32.8946 9.34479C31.224 8.94816 28.5791 8.74985 24.9599 8.74985C21.5438 8.74985 18.9743 8.95018 17.2516 9.35084C15.5288 9.75146 14.3282 10.5714 13.6498 11.8108ZM17.5029 34.9998H32.5144C33.5465 34.9998 34.4271 34.6327 35.1562 33.8983C35.8854 33.1639 36.25 32.2811 36.25 31.2498V24.9998H13.75V31.2498C13.75 32.2915 14.1175 33.1769 14.8524 33.9061C15.5874 34.6353 16.4708 34.9998 17.5029 34.9998Z" fill="currentColo"/>
</svg>