<svg  viewBox="0 0 50 50"  xmlns="http://www.w3.org/2000/svg">
  <path d="M5 42.8124V37.0312C5 36.5451 5.07812 36.085 5.23438 35.651C5.39062 35.2169 5.60764 34.8089 5.88542 34.427L22.7083 11.8749L20.3646 8.69783C20.2257 8.4895 20.1215 8.26381 20.0521 8.02075C19.9826 7.77769 19.9653 7.54332 20 7.31763C20.0347 7.09193 20.1128 6.86624 20.2344 6.64054C20.3559 6.41485 20.5208 6.23256 20.7292 6.09367C21.1458 5.81589 21.6059 5.70304 22.1094 5.75513C22.6128 5.80721 23.0208 6.04158 23.3333 6.45825L25 8.74992L26.7188 6.45825C27.0312 6.04158 27.4392 5.79853 27.9427 5.72908C28.4462 5.65964 28.9063 5.78117 29.3229 6.09367C29.7396 6.40617 29.9826 6.81415 30.0521 7.31763C30.1215 7.8211 30 8.28117 29.6875 8.69783L27.3438 11.8749L44.1146 34.427C44.3924 34.8089 44.6094 35.2169 44.7656 35.651C44.9219 36.085 45 36.5451 45 37.0312V42.8124C45 43.4027 44.783 43.9148 44.349 44.3489C43.9149 44.7829 43.4028 44.9999 42.8125 44.9999H7.1875C6.59722 44.9999 6.08507 44.7829 5.65104 44.3489C5.21701 43.9148 5 43.4027 5 42.8124ZM25 14.9999L8.75 36.8228V41.2499H15L23.2292 29.9478C23.6806 29.3576 24.2708 29.0624 25 29.0624C25.7292 29.0624 26.3194 29.3576 26.7708 29.9478L35 41.2499H41.25V36.8228L25 14.9999ZM19.5833 41.2499H30.3646L25 33.802L19.5833 41.2499Z" fill="currentColor"/>
</svg>