<svg  viewBox="0 0 50 50" fill="currentColor" xmlns="http://www.w3.org/2000/svg">
  <path d="M36.5945 26.9392C36.9789 26.9392 37.3006 26.8107 37.5598 26.5535C37.819 26.2965 37.9486 25.9773 37.9486 25.596C37.9486 25.2148 37.819 24.892 37.5598 24.6276C37.3006 24.3632 36.9789 24.2309 36.5945 24.2309H29.0144C28.6301 24.2309 28.3083 24.3595 28.0491 24.6166C27.7899 24.8737 27.6603 25.1929 27.6603 25.5741C27.6603 25.9554 27.7899 26.2782 28.0491 26.5426C28.3083 26.807 28.6301 26.9392 29.0144 26.9392H36.5945ZM36.5945 20.9296C36.9789 20.9296 37.3006 20.8011 37.5598 20.544C37.819 20.2868 37.9486 19.9677 37.9486 19.5865C37.9486 19.2052 37.819 18.8824 37.5598 18.618C37.3006 18.3536 36.9789 18.2213 36.5945 18.2213H29.0144C28.6301 18.2213 28.3083 18.3499 28.0491 18.607C27.7899 18.8641 27.6603 19.1833 27.6603 19.5645C27.6603 19.9457 27.7899 20.2686 28.0491 20.533C28.3083 20.7974 28.6301 20.9296 29.0144 20.9296H36.5945ZM17.5541 26.5707C16.6179 26.5707 15.7779 26.6495 15.0341 26.8071C14.2902 26.9646 13.5697 27.201 12.8727 27.5162C12.2717 27.818 11.7896 28.2096 11.4264 28.691C11.0631 29.1725 10.8815 29.689 10.8815 30.2405C10.8815 30.6782 11.0123 31.044 11.2741 31.338C11.5358 31.632 11.8377 31.779 12.1795 31.779H22.9807C23.3226 31.779 23.6244 31.6333 23.8861 31.342C24.1479 31.0508 24.2788 30.6903 24.2788 30.2605C24.2788 29.6863 24.1005 29.1695 23.744 28.7101C23.3874 28.2507 22.9019 27.8701 22.2876 27.5683C21.5558 27.2531 20.818 27.0081 20.0741 26.8331C19.3303 26.6582 18.4903 26.5707 17.5541 26.5707ZM17.5912 24.6796C18.4919 24.6796 19.2535 24.3648 19.8758 23.735C20.4981 23.1054 20.8093 22.3402 20.8093 21.4394C20.8093 20.5387 20.4944 19.7772 19.8647 19.1548C19.235 18.5325 18.4698 18.2213 17.5691 18.2213C16.6683 18.2213 15.9068 18.5362 15.2845 19.1659C14.6622 19.7956 14.351 20.5608 14.351 21.4616C14.351 22.3623 14.6658 23.1238 15.2956 23.7461C15.9253 24.3685 16.6905 24.6796 17.5912 24.6796ZM9.39109 38.9584C8.45332 38.9584 7.66064 38.6344 7.01307 37.9865C6.3655 37.3385 6.04172 36.5453 6.04172 35.607V14.3765C6.04172 13.4381 6.3655 12.6478 7.01307 12.0054C7.66064 11.3631 8.45332 11.0419 9.39109 11.0419H40.6089C41.5467 11.0419 42.3394 11.3659 42.9869 12.0139C43.6345 12.6618 43.9583 13.455 43.9583 14.3933V35.6239C43.9583 36.5622 43.6345 37.3525 42.9869 37.9949C42.3394 38.6373 41.5467 38.9584 40.6089 38.9584H9.39109ZM9.39109 36.2502H40.6089C40.7692 36.2502 40.9161 36.1834 41.0497 36.0498C41.1832 35.9163 41.25 35.7693 41.25 35.6091V14.3912C41.25 14.231 41.1832 14.084 41.0497 13.9505C40.9161 13.8169 40.7692 13.7502 40.6089 13.7502H9.39109C9.23082 13.7502 9.08389 13.8169 8.95031 13.9505C8.81677 14.084 8.75 14.231 8.75 14.3912V35.6091C8.75 35.7693 8.81677 35.9163 8.95031 36.0498C9.08389 36.1834 9.23082 36.2502 9.39109 36.2502Z" fill="currentColor"/>
</svg>