<svg viewBox="0 0 50 50" fill="currentColor" xmlns="http://www.w3.org/2000/svg">
  <path d="M15.0055 21.9604L25.0214 5.68924L35.0373 21.9604H15.0055ZM36.6066 45.032C34.2348 45.032 32.2398 44.2207 30.6217 42.5981C29.0036 40.9755 28.1945 38.9784 28.1945 36.6066C28.1945 34.2348 29.0036 32.2399 30.6217 30.6217C32.2398 29.0036 34.2348 28.1946 36.6066 28.1946C38.9783 28.1946 40.9755 29.0036 42.5981 30.6217C44.2207 32.2399 45.032 34.2348 45.032 36.6066C45.032 38.9784 44.2207 40.9755 42.5981 42.5981C40.9755 44.2207 38.9783 45.032 36.6066 45.032ZM7.05135 43.8568V29.2015H21.7067V43.8568H7.05135ZM36.6156 42.4146C38.2335 42.4146 39.6045 41.8518 40.7285 40.7262C41.8525 39.6006 42.4145 38.2266 42.4145 36.6042C42.4145 34.9819 41.8517 33.6109 40.7261 32.4913C39.6006 31.3717 38.2266 30.8119 36.6042 30.8119C34.9819 30.8119 33.6109 31.373 32.4913 32.495C31.3717 33.6171 30.8119 34.9906 30.8119 36.6156C30.8119 38.2336 31.373 39.6045 32.495 40.7285C33.617 41.8525 34.9906 42.4146 36.6156 42.4146ZM9.6688 41.2393H19.0892V31.8189H9.6688V41.2393ZM19.6581 19.343H30.398L25.0214 10.7104L19.6581 19.343Z" fill="currentColor"/>
</svg>