<svg  viewBox="0 0 50 50" fill="currentColor" xmlns="http://www.w3.org/2000/svg">
  <path d="M19.5222 26.0094C19.0742 26.0094 18.6879 25.8508 18.3634 25.5336C18.0389 25.2164 17.8766 24.8338 17.8766 24.3858C17.8766 23.9378 18.0353 23.5515 18.3525 23.227C18.6697 22.9025 19.0523 22.7403 19.5003 22.7403C19.9483 22.7403 20.3346 22.8989 20.6591 23.216C20.9836 23.5333 21.1459 23.9159 21.1459 24.3639C21.1459 24.8119 20.9872 25.1981 20.67 25.5227C20.3528 25.8472 19.9702 26.0094 19.5222 26.0094ZM30.4997 26.0094C30.0516 26.0094 29.6654 25.8508 29.3409 25.5336C29.0163 25.2164 28.8541 24.8338 28.8541 24.3858C28.8541 23.9378 29.0127 23.5515 29.3299 23.227C29.6471 22.9025 30.0297 22.7403 30.4777 22.7403C30.9258 22.7403 31.312 22.8989 31.6365 23.216C31.961 23.5333 32.1233 23.9159 32.1233 24.3639C32.1233 24.8119 31.9647 25.1981 31.6475 25.5227C31.3303 25.8472 30.9477 26.0094 30.4997 26.0094ZM10.4167 41.4581C10.033 41.4581 9.71145 41.3257 9.4519 41.0607C9.19235 40.7958 9.06258 40.4675 9.06258 40.0759C9.06258 39.7074 9.17475 39.3575 9.39909 39.0263C9.62346 38.6951 9.96266 38.6029 10.4167 38.7498H11.5626V11.8909C11.5626 10.9532 11.8866 10.1605 12.5346 9.51292C13.1825 8.86535 13.9757 8.54156 14.914 8.54156H35.1028C36.0411 8.54156 36.8315 8.86535 37.4738 9.51292C38.1162 10.1605 38.4374 10.9532 38.4374 11.8909V38.7498H39.5833C39.9669 38.7498 40.2885 38.8786 40.548 39.1362C40.8076 39.3938 40.9374 39.7129 40.9374 40.0937C40.9374 40.4745 40.8076 40.7971 40.548 41.0615C40.2885 41.3259 39.9669 41.4581 39.5833 41.4581H10.4167ZM14.2709 38.7498H23.6459V11.2498H14.9119C14.7517 11.2498 14.6047 11.3166 14.4712 11.4502C14.3376 11.5837 14.2709 11.7307 14.2709 11.8909V38.7498ZM26.3541 38.7498H35.7291V11.8909C35.7291 11.7307 35.6623 11.5837 35.5288 11.4502C35.3952 11.3166 35.2483 11.2498 35.088 11.2498H26.3541V38.7498Z" fill="currentColor"/>
</svg>