<svg  viewBox="0 0 50 50" fill="currentColor" xmlns="http://www.w3.org/2000/svg">
  <path d="M9.37504 43.2291V10.5503C9.37504 9.66106 9.69584 8.89568 10.3374 8.25412C10.979 7.61252 11.7444 7.29172 12.6336 7.29172H37.3664C38.2556 7.29172 39.021 7.61252 39.6625 8.25412C40.3041 8.89568 40.6249 9.66106 40.6249 10.5503V43.2291H38.0075V38.8221H11.9925V43.2291H9.37504ZM11.9925 23.6779H23.6913V9.90917H12.6336C12.4466 9.90917 12.293 9.96927 12.1728 10.0895C12.0526 10.2097 11.9925 10.3633 11.9925 10.5503V23.6779ZM26.3087 15.4848H38.0075V10.5503C38.0075 10.3633 37.9474 10.2097 37.8272 10.0895C37.707 9.96927 37.5534 9.90917 37.3664 9.90917H26.3087V15.4848ZM26.3087 23.6779H38.0075V18.1023H26.3087V23.6779ZM21.608 32.5587H28.392V29.9413H21.608V32.5587ZM11.9925 26.2954V36.2046H38.0075V26.2954H11.9925Z" fill="black"/>
</svg>