<svg  viewBox="0 0 50 50" fill="currentColor" xmlns="http://www.w3.org/2000/svg">
  <path d="M1.04177 37.0593V34.773C1.04177 33.4627 1.74334 32.3855 3.14646 31.5414C4.54959 30.6972 6.37862 30.2752 8.63355 30.2752C8.99886 30.2752 9.37202 30.2872 9.75303 30.3112C10.134 30.3353 10.5177 30.378 10.9041 30.4394C10.6103 31.0306 10.3889 31.631 10.2397 32.2406C10.0906 32.8503 10.0161 33.4749 10.0161 34.1146V37.0593H1.04177ZM13.5417 37.0593V34.1948C13.5417 33.2194 13.8155 32.3278 14.3631 31.5201C14.9106 30.7124 15.6999 30.0081 16.7308 29.4071C17.7618 28.8062 18.9797 28.3555 20.3846 28.055C21.7895 27.7545 23.3253 27.6042 24.992 27.6042C26.6907 27.6042 28.2425 27.7545 29.6474 28.055C31.0523 28.3555 32.2702 28.8062 33.3013 29.4071C34.3322 30.0081 35.1161 30.7124 35.653 31.5201C36.1898 32.3278 36.4583 33.2194 36.4583 34.1948V37.0593H13.5417ZM39.9839 37.0593V34.1206C39.9839 33.4434 39.9169 32.8011 39.783 32.1935C39.649 31.5859 39.4364 31.0021 39.1453 30.442C39.5539 30.3789 39.943 30.3353 40.3124 30.3112C40.6818 30.2872 41.0442 30.2752 41.3995 30.2752C43.6573 30.2752 45.4816 30.6903 46.8722 31.5204C48.2629 32.3506 48.9583 33.4348 48.9583 34.773V37.0593H39.9839ZM16.1992 34.4418H33.8115V34.0665C33.7669 32.9385 32.9247 32.0157 31.2847 31.2981C29.6448 30.5805 27.5499 30.2217 25 30.2217C22.459 30.2217 20.3663 30.5805 18.7219 31.2981C17.0775 32.0157 16.2366 32.9457 16.1992 34.0879V34.4418ZM8.60016 28.5057C7.69405 28.5057 6.91893 28.1817 6.2748 27.5336C5.63066 26.8855 5.3086 26.1055 5.3086 25.1938C5.3086 24.2803 5.63263 23.5033 6.28068 22.8627C6.92877 22.2222 7.70872 21.9019 8.62053 21.9019C9.53396 21.9019 10.3143 22.2222 10.9616 22.8627C11.6088 23.5033 11.9324 24.2873 11.9324 25.2148C11.9324 26.1071 11.6125 26.8787 10.9726 27.5295C10.3326 28.1803 9.54183 28.5057 8.60016 28.5057ZM41.3845 28.5057C40.4882 28.5057 39.7147 28.1796 39.0639 27.5273C38.413 26.8751 38.0876 26.0992 38.0876 25.1998C38.0876 24.2823 38.4137 23.5033 39.066 22.8627C39.7183 22.2222 40.4974 21.9019 41.4034 21.9019C42.3276 21.9019 43.11 22.2222 43.7506 22.8627C44.3912 23.5033 44.7115 24.2853 44.7115 25.2088C44.7115 26.1134 44.392 26.8891 43.7531 27.5358C43.1142 28.1824 42.3247 28.5057 41.3845 28.5057ZM25.0071 26.0417C23.5067 26.0417 22.2289 25.5159 21.1739 24.4642C20.1189 23.4126 19.5914 22.1355 19.5914 20.6332C19.5914 19.1007 20.1172 17.8162 21.1689 16.7796C22.2206 15.7429 23.4976 15.2246 25 15.2246C26.5324 15.2246 27.817 15.7422 28.8536 16.7775C29.8903 17.8128 30.4086 19.0957 30.4086 20.6261C30.4086 22.1265 29.891 23.4042 28.8557 24.4592C27.8204 25.5142 26.5375 26.0417 25.0071 26.0417ZM25.0222 23.4243C25.806 23.4243 26.4635 23.1536 26.9945 22.6122C27.5256 22.0708 27.7912 21.4037 27.7912 20.611C27.7912 19.8271 27.5247 19.1697 26.9919 18.6386C26.459 18.1075 25.7991 17.842 25.0122 17.842C24.2331 17.842 23.571 18.1084 23.0261 18.6413C22.4813 19.1742 22.2089 19.8341 22.2089 20.621C22.2089 21.4001 22.4796 22.0621 23.021 22.607C23.5624 23.1519 24.2295 23.4243 25.0222 23.4243Z" fill="currentColor"/>
</svg>