<svg width="124" height="46" viewBox="0 0 124 46" fill="none" xmlns="http://www.w3.org/2000/svg">
<g id="Logo">
<g id="text" clip-path="url(#clip0_146_15)">
<g id="Group">
<path id="Vector" d="M1.9975 31.1465H5.11361V41.5H7.27091V31.1465H10.3071L10.387 29.3807H1.9176L1.9975 31.1465Z" fill="#1A46CD"/>
<path id="Vector_2" d="M18.6966 36.9252C18.6167 36.7647 18.4569 36.5239 18.377 36.3634C18.4569 36.3634 18.4569 36.3634 18.5368 36.2831C19.176 36.0423 19.7353 35.5608 20.0549 34.999C20.3745 34.4371 20.5343 33.7148 20.5343 32.8319C20.5343 32.0293 20.3745 31.307 20.0549 30.8254C19.7353 30.3439 19.2559 29.9426 18.6167 29.6215C17.9775 29.3807 17.0187 29.2202 15.8202 29.2202C14.8614 29.2202 13.9825 29.2202 13.1036 29.3005C12.9438 29.3005 12.6242 29.3005 12.2247 29.3005V41.4198H14.382V36.6042C14.8614 36.6042 15.3408 36.6042 15.98 36.6042C16.1398 36.6042 16.2197 36.6042 16.3795 36.6042L18.4569 41.4198H20.8539L19.176 37.9686C19.0961 37.7278 18.9363 37.3265 18.6966 36.9252ZM15.8202 35.1595C15.3408 35.1595 14.9413 35.1595 14.4619 35.1595V30.9859C14.9413 30.9859 15.3408 30.9057 15.8202 30.9057C16.4594 30.9057 16.9388 30.9859 17.3383 31.0662C17.6579 31.1465 17.9775 31.3872 18.1373 31.7083C18.2971 32.0293 18.377 32.4306 18.377 32.9924C18.377 33.5543 18.2971 33.9556 18.1373 34.2766C17.9775 34.5977 17.7378 34.8384 17.3383 34.999C16.8589 35.0792 16.3795 35.1595 15.8202 35.1595Z" fill="#1A46CD"/>
<path id="Vector_3" d="M29.7228 34.2766H25.1685V29.3807H23.0112V41.5H25.1685V36.1226H29.7228V41.5H31.8801V29.3807H29.7228V34.2766Z" fill="#1A46CD"/>
<path id="Vector_4" d="M37.3932 29.3807L33.7977 41.5H35.955L36.5942 39.0922H40.8289L41.4681 41.5H43.6254L40.0299 29.3807H37.3932ZM37.0736 37.3265L38.6716 31.307L40.3495 37.3265H37.0736Z" fill="#1A46CD"/>
<path id="Vector_5" d="M51.5356 29.7017C50.8165 29.3807 49.8577 29.3004 48.739 29.3004C48.1797 29.3004 47.3807 29.3004 46.342 29.3807C46.0224 29.3807 45.7028 29.3807 45.3033 29.4609V41.5802H47.4606V37.4067C47.7802 37.4067 48.1797 37.4067 48.5792 37.4067C50.1773 37.4067 51.3758 37.0857 52.2547 36.3633C53.0537 35.641 53.5331 34.5976 53.5331 33.1529C53.5331 32.27 53.3733 31.5477 53.0537 30.9859C52.7341 30.4241 52.2547 29.9425 51.5356 29.7017ZM50.9763 34.6779C50.8165 35.0792 50.4969 35.3199 50.1773 35.4805C49.7778 35.641 49.2983 35.7212 48.5792 35.7212C48.2596 35.7212 47.8601 35.7212 47.4606 35.7212V30.9859C47.8601 30.9859 48.2596 30.9859 48.5792 30.9859C49.2184 30.9859 49.7778 31.0661 50.0974 31.2267C50.4969 31.3872 50.7366 31.628 50.8964 31.949C51.0562 32.27 51.1361 32.7516 51.1361 33.3134C51.2959 33.795 51.216 34.3568 50.9763 34.6779Z" fill="#1A46CD"/>
<path id="Vector_6" d="M63.5206 30.9057C63.201 30.3439 62.7216 29.9426 62.0025 29.6215C61.2834 29.3005 60.3246 29.2202 59.206 29.2202C58.6467 29.2202 57.8477 29.2202 56.809 29.3005C56.4894 29.3005 56.1698 29.3005 55.7703 29.3807V41.5H57.9276V37.3265C58.2472 37.3265 58.6467 37.3265 59.0462 37.3265C60.6442 37.3265 61.8427 37.0055 62.7216 36.2831C63.5206 35.5608 64 34.5174 64 33.0727C64 32.1898 63.8402 31.4675 63.5206 30.9057ZM61.4432 34.6779C61.2834 35.0792 60.9638 35.32 60.6442 35.4805C60.2447 35.641 59.7653 35.7213 59.0462 35.7213C58.7266 35.7213 58.3271 35.7213 57.9276 35.7213V30.9859C58.3271 30.9859 58.7266 30.9859 59.0462 30.9859C59.6854 30.9859 60.2447 31.0662 60.5643 31.2267C60.8839 31.3872 61.2035 31.628 61.3633 31.9491C61.5231 32.2701 61.603 32.7517 61.603 33.3135C61.6829 33.7951 61.603 34.3569 61.4432 34.6779Z" fill="#1A46CD"/>
<path id="Vector_7" d="M5.83271 18.8666C6.79151 19.0271 7.83021 19.1073 8.94881 19.1876C9.98752 19.2679 11.186 19.2679 12.4644 19.2679H16.2197C16.4594 18.6258 16.6192 17.9034 16.779 17.1811C16.9388 16.4587 16.9388 15.7364 16.9388 15.0141C16.9388 14.4522 16.8589 13.8102 16.779 13.0878C16.6991 12.3655 16.5393 11.7234 16.2996 11.2418C16.1398 11.2418 15.9001 11.2418 15.7403 11.3221C15.5006 11.4023 15.3408 11.4826 15.1011 11.5629C14.9413 11.6431 14.7016 11.7234 14.5418 11.8839C14.382 11.9642 14.2222 12.1247 14.1423 12.2049C14.4619 12.847 14.6217 13.4891 14.7815 14.2115C14.9413 14.8535 14.9413 15.4956 14.9413 16.1377C14.9413 16.3785 14.9413 16.6193 14.9413 16.86C14.9413 17.1008 14.8614 17.3416 14.8614 17.5021H12.6242C11.6654 17.5021 10.7066 17.5021 9.74782 17.5021C8.78901 17.5021 7.75031 17.4219 6.79151 17.2613C5.83271 17.0206 4.79401 16.86 3.75531 16.539C2.7166 16.2982 1.6779 15.8969 0.559301 15.4154C0.3196 15.7364 0.1598 16.1377 0.0799001 16.4587C0.0799001 16.86 0 17.1811 0 17.4219C1.0387 17.8232 1.9975 18.0639 2.9563 18.3047C3.91511 18.5455 4.87391 18.706 5.83271 18.8666Z" fill="#1A46CD"/>
<path id="Vector_8" d="M10.7865 21.9968C10.6267 21.8362 10.387 21.5955 10.2272 21.4349C9.98746 21.5955 9.74776 21.8362 9.50806 21.9968C9.26836 22.1573 9.10856 22.3178 8.94876 22.5586C8.78896 22.7191 8.62916 22.9599 8.46936 23.1204L10.1473 24.7256L11.7453 23.2007C11.5855 23.0401 11.3458 22.7994 11.186 22.6388C11.186 22.3981 11.0262 22.1573 10.7865 21.9968Z" fill="#1A46CD"/>
<path id="Vector_9" d="M20.2947 8.43275C20.2947 9.1551 20.3746 9.9577 20.3746 10.7603C20.3746 11.5629 20.4545 12.3655 20.4545 13.1681C20.5344 15.0944 20.6143 17.1009 20.6942 19.2679H24.1299H27.3259H30.5219H33.7179H36.9139H46.5019C46.5818 18.9469 46.6617 18.5456 46.7416 18.2245C46.8215 17.8232 46.8215 17.5022 46.8215 17.1811C46.8215 15.9772 46.5818 15.0141 46.1024 14.2115C45.623 13.4089 44.9838 12.6866 44.2647 12.205C43.5456 11.7234 42.6667 11.3221 41.7079 11.0813C40.7491 10.8406 39.8702 10.7603 38.9114 10.7603C38.7516 11.0011 38.5918 11.3221 38.5119 11.7234C38.432 12.1247 38.3521 12.526 38.3521 12.9273C39.3908 12.9273 40.2697 13.0076 41.1486 13.1681C41.9476 13.3286 42.6667 13.5694 43.3059 13.9707C43.8652 14.2918 44.3446 14.7733 44.6642 15.2549C44.9838 15.7364 45.1436 16.3785 45.1436 17.0206C45.1436 17.1009 45.1436 17.1811 45.1436 17.2614C45.1436 17.3416 45.1436 17.4219 45.1436 17.5022H36.9938H33.7978H30.6018H27.4058H24.2098H22.3721V4.5C21.9726 4.5 21.653 4.58026 21.2535 4.66052C20.854 4.74078 20.5344 4.9013 20.1349 5.22234C20.1349 5.54338 20.1349 5.94469 20.2148 6.58677C20.2148 7.06833 20.2947 7.71041 20.2947 8.43275Z" fill="#1A46CD"/>
<path id="Vector_10" d="M56.1698 23.6822C56.1698 23.923 56.1698 24.1638 56.1698 24.3243L61.2035 22.5586C61.2035 22.3178 61.2834 22.077 61.2834 21.8362C61.2834 21.5955 61.2834 21.4349 61.2834 21.2744L56.2497 23.0401C56.1698 23.2809 56.1698 23.4414 56.1698 23.6822Z" fill="#1A46CD"/>
<path id="Vector_11" d="M62.2422 17.1009C62.402 16.3785 62.402 15.6562 62.402 14.9339C62.402 14.372 62.3221 13.73 62.2422 13.0076C62.1623 12.2853 62.0025 11.7234 61.8427 11.2419C61.6829 11.2419 61.4432 11.2419 61.2834 11.3221C61.0437 11.4024 60.8839 11.4827 60.6442 11.5629C60.4844 11.6432 60.2447 11.7234 60.0849 11.884C59.9251 11.9642 59.7653 12.1247 59.6854 12.205C60.005 12.8471 60.1648 13.4892 60.3246 14.2115C60.4844 14.8536 60.4844 15.4957 60.4844 16.1378C60.4844 16.3785 60.4844 16.6193 60.4844 16.8601C60.4844 17.1009 60.4045 17.3417 60.4045 17.5022H55.6904C55.3708 17.5022 55.0512 17.4219 54.7316 17.3417C54.412 17.2614 54.1723 17.1811 53.8527 17.0206V16.8601C53.8527 16.4588 53.8527 15.9772 53.7728 15.4957C53.6929 15.0141 53.613 14.5326 53.4532 13.9707C53.2934 13.4892 53.1336 12.9273 52.9738 12.4458C52.814 11.9642 52.5743 11.4827 52.4145 11.1616C52.015 11.2419 51.6954 11.4024 51.3758 11.5629C51.1361 11.7234 50.8165 11.9642 50.4969 12.2853C51.0562 13.2484 51.4557 14.1313 51.8552 14.9339C52.2547 15.7365 52.4944 16.6193 52.5743 17.6627C52.0949 18.8666 51.3758 19.91 50.417 20.7929C49.4582 21.6757 48.2597 22.4783 46.9014 23.2809C47.1411 23.6822 47.3808 24.0033 47.7004 24.2441C48.02 24.4848 48.3396 24.6454 48.7391 24.8059C49.2984 24.4848 49.8577 24.0835 50.417 23.602C50.9763 23.1204 51.4557 22.6388 51.8552 22.077C52.2547 21.5152 52.6542 20.9534 52.9738 20.3113C53.2934 19.6692 53.5331 19.1074 53.6929 18.4653C53.8527 18.7061 54.1723 18.9469 54.4919 19.1074C54.8115 19.2679 55.211 19.3482 55.6904 19.3482H61.603C61.9226 18.5456 62.0824 17.8232 62.2422 17.1009Z" fill="#1A46CD"/>
<path id="Vector_12" d="M60.4843 7.46965C60.3245 7.30913 60.0848 7.06834 59.925 6.90782C59.7652 6.7473 59.6054 6.50652 59.3657 6.346C59.126 6.18548 58.9662 5.9447 58.8064 5.78418C58.5667 5.86444 58.327 6.10522 58.1672 6.26574C57.9275 6.42626 57.7677 6.66704 57.6079 6.82756C57.4481 6.98808 57.2883 7.22887 57.1285 7.38939L58.8064 9.07485L60.4843 7.46965Z" fill="#1A46CD"/>
<path id="Vector_13" d="M63.9201 7.46958C63.7603 7.30906 63.5206 7.06828 63.3608 6.90776C63.201 6.74724 63.0412 6.50646 62.8015 6.34594C62.5618 6.18542 62.4819 5.86438 62.3221 5.70386C61.8427 6.10516 61.3633 6.4262 61.1236 6.8275C60.9638 6.98802 60.804 7.2288 60.6442 7.38932L62.3221 8.99453L63.9201 7.46958Z" fill="#1A46CD"/>
</g>
</g>
<g id="icon" clip-path="url(#clip1_146_15)">
<g id="Vector_14">
<path d="M101.822 7.39005L122.881 14.3278C123.44 14.5288 124.051 14.0764 124.051 13.5234V8.89824C124.051 8.54633 123.847 8.24469 123.491 8.09387L102.382 0.0501561C102.127 -0.000117131 101.873 -0.000117131 101.669 0.0501561L80.5595 8.09387C80.2035 8.19442 80 8.54633 80 8.89824V13.3223C80 13.9256 80.5595 14.3278 81.1699 14.1267L101.822 7.39005Z" fill="#1A46CD"/>
<path d="M101.822 10.2556L80.6104 17.1933C80.2543 17.2939 80 17.6458 80 17.9977V35.8447C80 36.1966 80.2035 36.4982 80.5087 36.6491L101.618 45.9496C101.822 46.0502 102.127 46.0502 102.331 45.9496L123.44 36.6491C123.746 36.4982 123.949 36.1966 123.949 35.8447V18.1988C123.949 17.8469 123.695 17.495 123.339 17.3944L101.822 10.2556Z" fill="#1A46CD"/>
</g>
</g>
</g>
<defs>
<clipPath id="clip0_146_15">
<rect width="64" height="37" fill="white" transform="translate(0 4.5)"/>
</clipPath>
<clipPath id="clip1_146_15">
<rect width="44" height="46" fill="white" transform="translate(80)"/>
</clipPath>
</defs>
</svg>
