<svg  viewBox="0 0 50 50" xmlns="http://www.w3.org/2000/svg">
    <path d="M8.13568 15.1549C8.13568 13.7854 8.60969 12.6266 9.55771 11.6785C10.5057 10.7305 11.6645 10.2565 13.0341 10.2565H36.9659C38.3355 10.2565 39.4943 10.7305 40.4423 11.6785C41.3903 12.6266 41.8643 13.7854 41.8643 15.1549V18.9984C43.2826 18.9182 44.4722 19.3071 45.4333 20.1649C46.3944 21.0227 46.875 22.1678 46.875 23.6003V35.1655C46.875 36.5351 46.4009 37.6939 45.4529 38.6419C44.5049 39.5899 43.3461 40.0639 41.9765 40.0639H8.02349C6.65391 40.0639 5.49511 39.5899 4.54709 38.6419C3.59907 37.6939 3.12506 36.5351 3.12506 35.1655V23.6003C3.12506 22.1678 3.60917 21.0227 4.5774 20.1649C5.5456 19.3071 6.73169 18.9182 8.13568 18.9984V15.1549ZM10.7531 15.1549V20.0667C11.3033 20.4851 11.7458 20.9735 12.0806 21.5317C12.4153 22.0899 12.5827 22.7795 12.5827 23.6003V29.4017H37.4173V23.6003C37.4173 22.7795 37.5847 22.0899 37.9194 21.5317C38.2542 20.9735 38.6967 20.4851 39.2469 20.0667V15.1549C39.2469 14.4948 39.0318 13.9496 38.6015 13.5193C38.1713 13.0891 37.6261 12.8739 36.9659 12.8739H13.0341C12.3739 12.8739 11.8287 13.0891 11.3985 13.5193C10.9683 13.9496 10.7531 14.4948 10.7531 15.1549ZM40.0347 32.0191H9.96527V23.6022C9.96527 23.2858 9.91674 22.9996 9.81969 22.7436C9.72268 22.4877 9.57869 22.2642 9.38771 22.0732C9.19674 21.8822 8.97105 21.7382 8.71063 21.6412C8.45021 21.5441 8.16829 21.4956 7.86485 21.4956C7.22009 21.4956 6.70518 21.6882 6.32011 22.0732C5.93504 22.4583 5.74251 22.9687 5.74251 23.6045V35.1669C5.74251 35.8221 5.95763 36.3659 6.38787 36.7981C6.81811 37.2304 7.36332 37.4465 8.02349 37.4465H41.9765C42.6367 37.4465 43.1819 37.2314 43.6121 36.8011C44.0424 36.3709 44.2575 35.8275 44.2575 35.1711V23.6048C44.2575 22.9688 44.065 22.4583 43.6799 22.0732C43.2948 21.6882 42.7799 21.4956 42.1352 21.4956C41.8317 21.4956 41.5498 21.5441 41.2894 21.6412C41.029 21.7382 40.8048 21.8822 40.6169 22.0732C40.4289 22.2642 40.2849 22.487 40.1849 22.7416C40.0848 22.9962 40.0347 23.2824 40.0347 23.6003V32.0191Z" fill="currentColor"/>
</svg>